<svg width="120" height="120" viewBox="0 0 120 120" fill="none" xmlns="http://www.w3.org/2000/svg">
<g filter="url(#filter0_d_3065_6614)">
<path d="M60.0001 29.9336L27.5167 59.6169V100H92.4834V59.6169L60.0001 29.9336Z" fill="#F4F4F7"/>
<path d="M81.084 49.1995H38.9173L38.1506 49.9161H81.8506L81.084 49.1995Z" fill="#EAEBEF"/>
<path d="M84.7841 52.583H35.2174L34.4341 53.2997H85.5674L84.7841 52.583Z" fill="#EAEBEF"/>
<path d="M92.4839 59.6165L92.2005 59.3665H27.8005L27.5172 59.6165V60.0665H92.4839V59.6165Z" fill="#EAEBEF"/>
<path d="M88.4838 55.9666H31.5171L30.7338 56.6832H89.2671L88.4838 55.9666Z" fill="#EAEBEF"/>
<path d="M92.4672 62.7495H27.5172V63.4662H92.4672V62.7495Z" fill="#EAEBEF"/>
<path d="M62.5504 32.2664H57.4504L56.6671 32.983H63.3338L62.5504 32.2664Z" fill="#EAEBEF"/>
<path d="M77.367 45.8164H42.6337L41.8503 46.5331H78.1503L77.367 45.8164Z" fill="#EAEBEF"/>
<path d="M66.2507 35.6499H53.7507L52.9674 36.3666H67.0341L66.2507 35.6499Z" fill="#EAEBEF"/>
<path d="M69.9671 39.033H50.0338L49.2671 39.7496H70.7338L69.9671 39.033Z" fill="#EAEBEF"/>
<path d="M73.6673 42.4333H46.334L45.5507 43.1334H74.4507L73.6673 42.4333Z" fill="#EAEBEF"/>
<path d="M92.4672 79.6831H27.5172V80.3998H92.4672V79.6831Z" fill="#EAEBEF"/>
<path d="M92.4672 89.8333H27.5172V90.5499H92.4672V89.8333Z" fill="#EAEBEF"/>
<path d="M92.4672 86.4497H27.5172V87.1664H92.4672V86.4497Z" fill="#EAEBEF"/>
<path d="M92.4672 93.2332H27.5172V93.9498H92.4672V93.2332Z" fill="#EAEBEF"/>
<path d="M92.4672 96.6162H27.5172V97.3329H92.4672V96.6162Z" fill="#EAEBEF"/>
<path d="M92.4672 69.5161H27.5172V70.2328H92.4672V69.5161Z" fill="#EAEBEF"/>
<path d="M92.4672 66.1331H27.5172V66.8497H92.4672V66.1331Z" fill="#EAEBEF"/>
<path d="M92.4672 83.0662H27.5172V83.7828H92.4672V83.0662Z" fill="#EAEBEF"/>
<path d="M92.4672 72.8997H27.5172V73.6163H92.4672V72.8997Z" fill="#EAEBEF"/>
<path d="M92.4672 76.2996H27.5172V77.0162H92.4672V76.2996Z" fill="#EAEBEF"/>
<path d="M83.9835 32.0168H77.3335V42.9335H83.9835V32.0168Z" fill="#303331"/>
<path opacity="0.5" d="M27.5167 60.2166V56.7833L60.0001 27.0833L92.4834 56.7833V60.2166L60.0001 30.4499L27.5167 60.2166Z" fill="#C0C2C9"/>
<path d="M60 20L100 57.3833H92.5833L60 27.8167L27.4167 57.3833H20L60 20Z" fill="#676B6D"/>
<path d="M75.6332 31.7834C75.6332 32.5834 76.3166 33.2334 77.1832 33.2334H84.1666C85.0166 33.2334 85.7166 32.5834 85.7166 31.7834V29.3667C85.7166 28.5667 85.0332 27.9167 84.1666 27.9167H77.1666C76.3166 27.9167 75.6166 28.5667 75.6166 29.3667V31.7834H75.6332Z" fill="#676B6D"/>
<path d="M94.3999 99.9999V98.4666C94.3999 97.7332 93.7499 97.1499 92.9499 97.1499H27.0499C26.2499 97.1499 25.5999 97.7332 25.5999 98.4666V99.9999H94.3999Z" fill="#676B6D"/>
<path d="M94.3997 99.4333H25.5997V100H94.3997V99.4333Z" fill="#303331"/>
<path d="M66.7509 64.9492H53.2509V97.1492H66.7509V64.9492Z" fill="#C61A27"/>
<path d="M52.4838 64.2329V97.8829H54.0171V96.4329V65.6662H65.9838V96.4329V97.8829H67.5171V64.2329H52.4838Z" fill="#676B6D"/>
<path d="M68.6001 97.1497H51.4001V99.9997H68.6001V97.1497Z" fill="#303331"/>
<path opacity="0.25" d="M64.5166 78.2998L60.0333 78.3998C59.2833 78.4165 58.5166 78.4331 57.7499 78.4498L56.5999 78.4665L55.45 78.4831H55.2666V78.2998L55.2333 75.6165L55.2166 72.9331C55.2166 72.0331 55.2166 71.1331 55.2 70.2498V67.5665V67.3165H55.45L59.9999 67.2998L62.2666 67.3165L64.5333 67.3331H64.7333V67.5331L64.6999 70.2498L64.65 72.9498L64.5166 78.2998ZM64.5166 78.2998L64.3999 72.8665L64.35 70.1998L64.3166 67.5498L64.5166 67.7498L62.25 67.7665L59.9999 67.7831L55.4833 67.7998L55.7333 67.5498V70.2331C55.7333 71.1331 55.7333 72.0331 55.7166 72.9165L55.6999 75.5998L55.6666 78.2831L55.4833 78.0998L56.5999 78.1165L57.7166 78.1331L59.9666 78.1831L64.5166 78.2998Z" fill="black"/>
<path opacity="0.25" d="M64.5166 94.4829L60.0333 94.5829C59.2833 94.5996 58.5166 94.6162 57.7499 94.6329L56.5999 94.6496L55.45 94.6662H55.2666V94.4829L55.2333 91.7996L55.2166 89.1162C55.2166 88.2162 55.2166 87.3162 55.2 86.4329V83.7496V83.4996H55.45L59.9999 83.4829L62.2666 83.4996L64.5333 83.5162H64.7333V83.7162L64.6999 86.4329L64.65 89.1329L64.5166 94.4829ZM64.5166 94.4829L64.3999 89.0496L64.35 86.3829L64.3166 83.7329L64.5166 83.9329L62.25 83.9496L59.9999 83.9662L55.4833 83.9829L55.7333 83.7329V86.4162C55.7333 87.3162 55.7333 88.2162 55.7166 89.0996L55.6999 91.7829L55.6666 94.4662L55.4833 94.2829L56.5999 94.2996L57.7166 94.3162L59.9666 94.3662L64.5166 94.4829Z" fill="black"/>
<path d="M64.9169 81.5495C64.9169 81.9495 64.6002 82.2662 64.2002 82.2662C63.8002 82.2662 63.4835 81.9495 63.4835 81.5495C63.4835 81.1495 63.8002 80.8329 64.2002 80.8329C64.6002 80.8162 64.9169 81.1495 64.9169 81.5495Z" fill="#303331"/>
<path d="M51.3666 50.0999C51.3666 54.8666 55.2332 58.7333 59.9999 58.7333C64.7666 58.7333 68.6332 54.8666 68.6332 50.0999C68.6332 45.3333 64.7666 41.4666 59.9999 41.4666C55.2332 41.4499 51.3666 45.3166 51.3666 50.0999Z" fill="#A8D6F3"/>
<path d="M60.7333 41.4497H59.2833V58.733H60.7333V41.4497Z" fill="#676B6D"/>
<path d="M68.6499 49.3831H51.3666V50.8331H68.6499V49.3831Z" fill="#676B6D"/>
<path d="M50.6334 50.1001C50.6334 44.9334 54.8334 40.7334 60.0001 40.7334C65.1668 40.7334 69.3668 44.9334 69.3668 50.1001C69.3668 55.2667 65.1668 59.4667 60.0001 59.4667C54.8334 59.4667 50.6334 55.2667 50.6334 50.1001ZM52.0834 50.1001C52.0834 54.4667 55.6334 58.0167 60.0001 58.0167C64.3668 58.0167 67.9168 54.4667 67.9168 50.1001C67.9168 45.7334 64.3668 42.1834 60.0001 42.1834C55.6334 42.1834 52.0834 45.7334 52.0834 50.1001Z" fill="#303331"/>
<path d="M83.8332 69.7339H72.9666V84.6506H83.8332V69.7339Z" fill="#A8D6F3"/>
<path d="M85.2833 68.3003V86.1003H71.5333V68.3003H85.2833ZM72.9667 84.6503H83.8333V69.7336H72.9667V84.6503Z" fill="#676B6D"/>
<path d="M72.9666 70.1174L83.8332 78.4674V80.8841L72.9666 72.5341V70.1174Z" fill="#C2E6FB"/>
<path d="M72.9666 73.8674L83.8332 82.2341V84.6508L72.9666 76.2841V73.8674Z" fill="#C2E6FB"/>
<path d="M86.5668 82.0837H70.2168V86.0837H86.5668V82.0837Z" fill="#303331"/>
<path d="M47.0334 69.7336H36.1667V84.6503H47.0334V69.7336Z" fill="#A8D6F3"/>
<path d="M48.4835 68.3V86.1001H34.7168V68.3H48.4835ZM36.1668 84.6501H47.0335V69.7334H36.1668V84.6501Z" fill="#676B6D"/>
<path d="M36.1667 70.1172L47.0334 78.4672V80.8839L36.1667 72.5339V70.1172Z" fill="#C2E6FB"/>
<path d="M36.1667 73.8672L47.0334 82.2339V84.6505L36.1667 76.2839V73.8672Z" fill="#C2E6FB"/>
<path d="M49.7833 82.0835H33.4333V86.0835H49.7833V82.0835Z" fill="#303331"/>
<path d="M51.6163 97.1498H46.2497L44.7997 94.4331H53.0663L51.6163 97.1498Z" fill="#B69571"/>
<path d="M52.0331 91.4165C52.0331 91.3665 52.0498 91.3165 52.0498 91.2499C52.0498 90.5332 51.4831 89.9165 50.7164 89.7665C50.4998 89.5165 50.1664 89.3499 49.7831 89.3499C49.2831 89.3499 48.8664 89.6332 48.6998 90.0165C48.3498 89.6165 47.7998 89.3499 47.1664 89.3499C46.0998 89.3499 45.2498 90.1165 45.2498 91.0499C45.2498 91.2665 45.2998 91.4665 45.3831 91.6665C44.9998 91.8499 44.7164 92.2165 44.7164 92.6332C44.7164 92.7999 44.7664 92.9665 44.8498 93.1165H46.1998H46.9831H47.0664H48.4498H48.6831H48.8331H49.7498H49.7831H50.9498H51.6331H52.9164C53.0664 92.9332 53.1498 92.7165 53.1498 92.4832C53.1498 91.9332 52.6664 91.4665 52.0331 91.4165Z" fill="#A0C151"/>
<path d="M53.6499 93.083H44.2166V94.7163H53.6499V93.083Z" fill="#D0AF8B"/>
<path d="M73.7498 97.1498H68.3831L66.9331 94.4331H75.1998L73.7498 97.1498Z" fill="#B69571"/>
<path d="M74.1665 91.4165C74.1665 91.3665 74.1832 91.3165 74.1832 91.2499C74.1832 90.5332 73.6165 89.9165 72.8498 89.7665C72.6332 89.5165 72.2998 89.3499 71.9165 89.3499C71.4165 89.3499 70.9999 89.6332 70.8332 90.0165C70.4832 89.6165 69.9332 89.3499 69.2999 89.3499C68.2332 89.3499 67.3832 90.1165 67.3832 91.0499C67.3832 91.2665 67.4332 91.4665 67.5165 91.6665C67.1332 91.8499 66.8499 92.2165 66.8499 92.6332C66.8499 92.7999 66.8999 92.9665 66.9832 93.1165H68.3332H69.1165H69.1999H70.5832H70.8165H70.9665H71.8832H71.9165H73.0832H73.7665H75.0498C75.1998 92.9332 75.2832 92.7165 75.2832 92.4832C75.2832 91.9332 74.7832 91.4665 74.1665 91.4165Z" fill="#A0C151"/>
<path d="M75.7833 93.083H66.35V94.7163H75.7833V93.083Z" fill="#D0AF8B"/>
</g>
<defs>
<filter id="filter0_d_3065_6614" x="0" y="0" width="124" height="124" filterUnits="userSpaceOnUse" color-interpolation-filters="sRGB">
<feFlood flood-opacity="0" result="BackgroundImageFix"/>
<feColorMatrix in="SourceAlpha" type="matrix" values="0 0 0 0 0 0 0 0 0 0 0 0 0 0 0 0 0 0 127 0" result="hardAlpha"/>
<feOffset dx="2" dy="2"/>
<feGaussianBlur stdDeviation="1"/>
<feColorMatrix type="matrix" values="0 0 0 0 0 0 0 0 0 0.670588 0 0 0 0 0.333333 0 0 0 0.24 0"/>
<feBlend mode="normal" in2="BackgroundImageFix" result="effect1_dropShadow_3065_6614"/>
<feBlend mode="normal" in="SourceGraphic" in2="effect1_dropShadow_3065_6614" result="shape"/>
</filter>
</defs>
</svg>
