<svg width="120" height="120" viewBox="0 0 120 120" fill="none" xmlns="http://www.w3.org/2000/svg">
<path d="M98.2375 88.0667C98.0375 88.0667 97.7708 88 97.5708 87.9333C97.5708 87.9333 85.3708 82.2 79.5708 79.4667C75.2375 81.2 70.5708 82.1333 65.7708 82.1333C46.9041 82.1333 31.5708 68.2 31.5708 51.0667C31.5708 33.9333 46.9041 20 65.7708 20C84.6375 20 99.9708 33.9333 99.9708 51.0667C99.9708 57.7333 97.7041 64.0667 93.3708 69.4C95.7041 75.4667 99.6375 85.8667 99.6375 85.9333C99.8375 86.5333 99.7041 87.2 99.2375 87.6667C98.9708 87.9333 98.5708 88.0667 98.2375 88.0667ZM79.6375 76.2C79.8375 76.2 80.1041 76.2667 80.3041 76.3333C83.9708 78.0667 91.1708 81.4 95.4375 83.4C93.9708 79.5333 91.6375 73.4 90.1708 69.6C89.9708 69.0667 90.0375 68.4 90.4375 68C94.6375 63.0667 96.8375 57.2 96.8375 51C96.8375 35.6 82.9041 23.0667 65.7708 23.0667C48.6375 23.1333 34.6375 35.6667 34.6375 51.0667C34.6375 66.4667 48.6375 79 65.7708 79C70.4375 79 74.8375 78.1333 79.0375 76.3333C79.1708 76.2667 79.4375 76.2 79.6375 76.2Z" fill="#FF7A33"/>
<path d="M68.2374 82.0666C63.8374 88.0666 56.304 92.0666 47.6374 92.0666C43.9707 92.0666 40.4374 91.3332 37.1707 89.9332C36.7707 89.7332 36.304 89.7999 35.904 89.9332C33.1707 91.2666 27.9707 93.6666 24.504 95.2666C25.704 92.1332 27.3707 87.7332 28.4374 84.9999C28.6374 84.4666 28.5707 83.7999 28.1707 83.3999C24.8374 79.5332 23.104 74.8666 23.104 69.9999C23.104 63.3332 26.4374 57.3999 31.6374 53.3332C31.5707 52.5999 31.504 51.7999 31.504 50.9999C31.504 50.4666 31.504 49.9999 31.5707 49.4666C24.5707 54.1332 19.9707 61.5999 19.9707 70.0666C19.9707 75.3999 21.7707 80.4666 25.1707 84.7999C23.304 89.6666 20.2374 97.7999 20.2374 97.8666C20.0374 98.4666 20.1707 99.1332 20.6374 99.5999C20.904 99.8666 21.304 99.9999 21.704 99.9999C21.904 99.9999 22.1707 99.9332 22.3707 99.8666C22.3707 99.8666 31.9707 95.3999 36.6374 93.1999C40.104 94.5999 43.8374 95.2666 47.704 95.2666C58.4374 95.2666 67.704 89.7332 72.304 81.5999C70.9707 81.7999 69.5707 81.9999 68.2374 82.0666Z" fill="#0082CD"/>
<path d="M86.4375 63.1334C85.5708 61.7334 84.1708 60.8001 82.6375 60.5334C81.9708 60.4001 81.3041 60.4668 80.5708 60.6001C77.1708 56.9334 71.4375 49.8668 68.1708 45.4668C68.9041 43.5334 68.6375 41.5334 67.3041 39.5334C65.5708 36.9334 62.6375 35.8001 60.4375 35.3334C59.8375 35.2001 59.3041 35.3334 58.9041 35.7334C58.4375 36.2001 58.3041 36.8001 58.3041 37.2001C58.3708 37.8001 58.7708 38.2668 58.9708 38.5334C59.9041 39.6001 60.7708 40.6668 61.6375 41.7334C61.7041 41.8001 61.7708 41.9334 61.8375 42.0001C61.8375 42.0668 61.7708 42.2001 61.4375 42.4668C60.9041 42.9334 60.3708 43.4001 59.7708 43.8001C59.7041 43.8668 59.6375 43.8668 59.6375 43.9334L59.5708 43.8668C58.3708 42.7334 57.2375 41.4668 56.1708 40.2001C55.9708 40.0001 55.6375 39.6001 55.1041 39.5334C54.4375 39.4668 53.7708 39.8668 53.5041 40.5334C52.8375 42.2001 54.1041 46.4001 55.1708 48.0001C56.3041 49.6001 57.9708 50.6668 59.7041 50.8668C59.9708 50.8668 60.1708 50.9334 60.4375 50.9334C61.1041 50.9334 61.8375 50.8001 62.5708 50.6001C66.6375 54.8668 71.9041 60.9334 75.1041 64.9334C74.3708 66.5334 74.5708 68.2668 75.6375 70.0668C77.0375 72.3334 79.5041 73.3334 81.3041 73.8001C81.4375 73.8668 81.6375 73.8668 81.7708 73.8668C82.1708 73.8668 82.5041 73.7335 82.7708 73.5335C83.1708 73.2001 83.3708 72.6668 83.3708 72.2001C83.3041 71.6001 82.9708 71.2001 82.7708 71.0001C82.0375 70.1334 81.3708 69.2001 80.7041 68.2668C80.7041 68.2668 80.6375 68.2001 80.6375 68.1334C80.7041 68.0668 80.7708 68.0001 80.9041 67.8668C81.3708 67.4668 81.8375 67.1334 82.3041 66.8001C83.2375 67.8001 84.1041 68.8001 84.9708 69.8668C85.1041 70.0668 85.4375 70.4001 85.9708 70.5335C86.5708 70.6001 87.2375 70.2668 87.5041 69.6668C88.2375 68.0001 87.1708 64.3334 86.4375 63.1334ZM59.9708 49.0001C58.7041 48.8668 57.5708 48.0668 56.7041 46.9334C55.9041 45.8001 55.2375 43.2668 55.1708 41.9334C56.1708 43.0668 57.1708 44.1334 58.2375 45.2001C58.4375 45.4001 58.7041 45.6668 59.1708 45.8001C59.9708 46.0001 60.6375 45.5334 60.9041 45.3334C61.5041 44.8668 62.1041 44.4001 62.7041 43.9334C63.0375 43.6668 63.9041 42.8668 63.7041 41.8001C63.6375 41.2668 63.3041 40.8668 63.1041 40.6001C62.2375 39.4668 61.3041 38.4001 60.3708 37.2668C62.1708 37.7334 64.3708 38.6001 65.7041 40.6001C67.2375 42.9334 66.9041 45.1334 64.6375 47.2001C63.1041 48.5334 61.5041 49.2001 59.9708 49.0001ZM76.2375 63.2668C73.1041 59.4001 68.2375 53.8668 64.3708 49.7334C64.9041 49.4001 65.3708 49.0668 65.9041 48.6001C66.3708 48.2001 66.7708 47.7334 67.1708 47.2668C70.3041 51.4668 75.3708 57.6668 78.7041 61.3334C78.2375 61.6001 77.7041 61.9334 77.2375 62.3334C76.9041 62.6001 76.5708 62.9334 76.2375 63.2668ZM83.7041 65.3334C83.5708 65.2001 83.3041 64.9334 82.9041 64.8001C82.1708 64.6001 81.5708 65.0001 81.3041 65.1334C80.7708 65.4668 80.2375 65.8668 79.7708 66.2668C79.5041 66.5334 78.7041 67.1334 78.7708 68.1334C78.8375 68.6668 79.1041 69.0001 79.2375 69.2001C79.8375 70.0001 80.4375 70.8668 81.1041 71.6668C79.7708 71.2001 78.2375 70.4001 77.3041 69.0001C76.1041 67.0668 76.5041 65.3334 78.4375 63.7334C79.5708 62.8001 80.7708 62.2668 81.8375 62.2668C82.0375 62.2668 82.1708 62.2668 82.3708 62.3334C83.3708 62.4668 84.2375 63.1334 84.8375 64.0668C85.3708 64.8668 85.7708 66.6001 85.9041 67.7334C85.1708 67.0001 84.4375 66.1334 83.7041 65.3334Z" fill="#0082CD"/>
<path d="M63.2374 53C62.6374 53.6667 62.3041 54.6 62.0374 55.4667H60.2374C59.7707 54.0667 59.3041 52.6667 57.6374 52C55.9707 51.2667 54.6374 51.9333 53.3707 52.6L52.1041 51.2667C52.7707 49.9333 53.3707 48.6667 52.7041 46.9334C52.0374 45.2667 50.7041 44.8 49.3041 44.3334V42.4667C50.5707 42.0667 51.7707 41.6 52.5041 40.3334C52.5041 40.2667 52.5707 40.2 52.5707 40.1334C52.6374 39.9334 52.7041 39.8 52.8374 39.6667C53.3707 38.0667 52.8374 36.8667 52.1707 35.6L53.4374 34.2667C54.7041 34.9333 56.0374 35.5333 57.7041 34.8667C59.3707 34.2 59.8374 32.8 60.3041 31.4H62.1041C62.5707 32.8 63.0374 34.2 64.7041 34.8667C66.3707 35.6 67.7041 34.9333 68.9707 34.2667L70.2374 35.6C69.5707 36.9333 68.9707 38.2667 69.6374 39.9333C70.3041 41.6 71.6374 42.0667 73.0374 42.5333V44.4C71.9041 44.8 70.9041 45.1334 70.1707 46.1334C70.6374 46.8 71.2374 47.4667 71.7707 48.2C71.7707 48.1334 71.8374 48.0667 71.8374 48C72.1707 47.1334 72.9041 47.0667 75.4374 46.1334V40.8667C72.9041 39.9333 72.1707 39.8667 71.8374 39C71.5041 38.1334 71.9041 37.6 73.1041 35.1334L69.3707 31.3333C66.9707 32.4667 66.4374 33 65.5041 32.6C64.6374 32.2667 64.5707 31.5333 63.7041 28.9333H58.5041C57.5707 31.5333 57.5707 32.2 56.7041 32.6C55.8374 33 55.2374 32.4667 52.8374 31.3333L49.1707 35.0667C50.3041 37.5333 50.7707 38.0667 50.4374 38.9333C50.1041 39.8 49.3707 39.8667 46.8374 40.8V46.0667C49.3707 47 50.1041 47 50.4374 47.9334C50.7707 48.8 50.3707 49.3334 49.1707 51.8L52.8374 55.5334C55.2374 54.4 55.7707 53.8667 56.7041 54.2667C57.5707 54.6 57.6374 55.3334 58.5041 57.9333H63.7041C64.3041 56.2 64.5041 55.3334 64.8374 54.8667C64.3041 54.1334 63.7707 53.6 63.2374 53Z" fill="#0082CD"/>
</svg>
