<svg width="120" height="120" viewBox="0 0 120 120" fill="none" xmlns="http://www.w3.org/2000/svg">
<g id="icon/color/ic_onboarding">
<g id="Group">
<g id="Group_2">
<g id="Group_3">
<path id="Vector" d="M94.1041 81.8C94.1041 82.2667 93.7041 82.6667 93.2374 82.6667H78.6374C78.1708 82.6667 77.7708 82.2667 77.7708 81.8C77.7708 81.3333 78.1708 80.9333 78.6374 80.9333H93.3041C93.7708 80.9333 94.1041 81.3333 94.1041 81.8Z" fill="#0082CD"/>
<path id="Vector_2" d="M91.9041 85.1333H78.6374C78.1708 85.1333 77.7708 85.5333 77.7708 86C77.7708 86.4666 78.1708 86.8666 78.6374 86.8666H91.9041C92.3708 86.8666 92.7708 86.4666 92.7708 86C92.7708 85.5333 92.3708 85.1333 91.9041 85.1333Z" fill="#0082CD"/>
<path id="Vector_3" d="M88.2374 89.3333H78.6374C78.1708 89.3333 77.7708 89.7333 77.7708 90.1999C77.7708 90.6666 78.1708 91.0666 78.6374 91.0666H88.2374C88.7041 91.0666 89.1041 90.6666 89.1041 90.1999C89.0374 89.7333 88.7041 89.3333 88.2374 89.3333Z" fill="#0082CD"/>
</g>
<path id="Vector_4" d="M99.9707 76.0667V95.8667C99.9707 98.1333 98.104 99.9333 95.904 99.9333H76.0374C73.7707 99.9333 71.9707 98.0667 71.9707 95.8667V76.0667C71.9707 73.8 73.8374 72 76.0374 72H95.8374C98.104 72 99.9707 73.8667 99.9707 76.0667ZM97.4374 76.0667C97.4374 75.2 96.704 74.4667 95.8374 74.4667H76.0374C75.1707 74.4667 74.4374 75.2 74.4374 76.0667V95.8667C74.4374 96.7333 75.1707 97.4667 76.0374 97.4667H95.8374C96.704 97.4667 97.4374 96.7333 97.4374 95.8667V76.0667Z" fill="#FF7A33"/>
</g>
<g id="Group_4">
<path id="Vector_5" fill-rule="evenodd" clip-rule="evenodd" d="M85.9707 20C78.2374 20 71.9707 26.2667 71.9707 34C71.9707 41.7333 78.2374 48 85.9707 48C93.704 48 99.9707 41.7333 99.9707 34C99.9707 26.2667 93.704 20 85.9707 20ZM85.9707 45.6667C79.504 45.6667 74.304 40.4667 74.304 34C74.304 27.5333 79.504 22.3333 85.9707 22.3333C92.4374 22.3333 97.6374 27.5333 97.6374 34C97.6374 40.4667 92.4374 45.6667 85.9707 45.6667Z" fill="#FF7A33"/>
<path id="Vector_6" fill-rule="evenodd" clip-rule="evenodd" d="M92.9706 28.1334C93.5039 28.6 93.5706 29.4 93.1039 29.9334L84.904 39.7334C84.904 39.7334 84.8373 39.7334 84.8373 39.8C84.8373 39.8 84.8373 39.8 84.8373 39.8667C84.7706 39.9334 84.7706 39.9334 84.704 39.9334C84.6373 40 84.5706 40.0667 84.4373 40.0667C84.3706 40.0667 84.304 40.1334 84.2373 40.1334C84.1706 40.1334 84.104 40.2 83.9706 40.2C83.904 40.2 83.8373 40.2 83.704 40.2C83.6373 40.2 83.5706 40.2 83.504 40.1334C83.4373 40.1334 83.304 40.0667 83.2373 40C83.1706 40 83.1706 39.9334 83.104 39.9334C83.104 39.9334 83.104 39.9334 83.104 39.8667C83.104 39.8667 83.0373 39.8667 83.0373 39.8L78.904 35.6667C78.4373 35.2 78.4373 34.4 78.904 33.8667C79.3706 33.4 80.1706 33.4 80.704 33.8667L83.904 37.0667L91.3039 28.2667C91.7039 27.7334 92.4373 27.6667 92.9706 28.1334Z" fill="#0082CD"/>
</g>
<g id="Group_5">
<path id="Vector_7" fill-rule="evenodd" clip-rule="evenodd" d="M33.904 20C29.5707 20 26.0374 23.5333 26.0374 27.8667C26.0374 32.2 29.5707 35.7333 33.904 35.7333C38.2374 35.7333 41.7707 32.2 41.7707 27.8667C41.7707 23.5333 38.2374 20 33.904 20ZM33.904 33.6667C30.704 33.6667 28.104 31.0667 28.104 27.8667C28.104 24.6667 30.704 22.0667 33.904 22.0667C37.104 22.0667 39.704 24.6667 39.704 27.8667C39.704 31 37.104 33.6667 33.904 33.6667Z" fill="#0082CD"/>
<path id="Vector_8" fill-rule="evenodd" clip-rule="evenodd" d="M47.9707 46.9333C47.9707 47.5333 47.504 48 46.904 48H42.7707C42.1707 48 41.704 47.5333 41.704 46.9333C41.704 46.3333 42.1707 45.8667 42.7707 45.8667H45.7707C45.2374 42.0667 42.704 39.1333 38.7707 39.1333H29.1707C25.2374 39.1333 22.6374 42.1333 22.1707 45.8667H38.304C38.8374 45.8667 39.304 46.3333 39.304 46.9333C39.304 47.5333 38.8374 47.9333 38.304 48H21.0374C20.4374 48 19.9707 47.5333 19.9707 46.9333C19.9707 41.4667 23.704 37.0667 29.1707 37.0667H38.8374C44.2374 37.0667 47.9707 41.5333 47.9707 46.9333Z" fill="#FF7A33"/>
</g>
<g id="Group_6">
<path id="Vector_9" d="M47.9707 88.5333V83.4C45.4374 82.5333 44.7707 82.4667 44.4374 81.6C44.104 80.7333 44.504 80.2667 45.704 77.8667L42.104 74.2667C39.7707 75.4 39.1707 75.8667 38.3707 75.5333C37.504 75.2 37.504 74.4667 36.5707 72H31.4374C30.5707 74.5333 30.504 75.2 29.6374 75.5333C28.7707 75.8667 28.2374 75.4 25.904 74.2667L22.304 77.8667C23.4374 80.2667 23.904 80.8 23.5707 81.6C23.2374 82.4667 22.5707 82.4667 20.0374 83.4V88.5333C22.504 89.4 23.2374 89.4667 23.5707 90.3333C23.904 91.2 23.504 91.6667 22.304 94.0667L25.904 97.6667C28.2374 96.5333 28.7707 96.0667 29.6374 96.4C30.504 96.7333 30.504 97.4 31.4374 99.9333H36.5707C37.4374 97.4667 37.504 96.7333 38.3707 96.4C39.2374 96.0667 39.7707 96.5333 42.104 97.6667L45.704 94.0667C44.5707 91.6667 44.104 91.1333 44.4374 90.3333C44.7707 89.4667 45.4374 89.4667 47.9707 88.5333ZM42.304 89.4667C41.6374 91.0667 42.2374 92.3333 42.904 93.6667L41.6374 94.9333C40.3707 94.2667 39.104 93.6667 37.4374 94.3333C35.8374 95 35.3707 96.3333 34.904 97.6667H33.104C32.6374 96.2667 32.1707 95 30.5707 94.3333C28.904 93.6667 27.6374 94.2667 26.3707 94.9333L25.104 93.6667C25.7707 92.3333 26.3707 91.1333 25.704 89.4667C25.0374 87.8667 23.704 87.4 22.3707 86.9333V85.1333C23.7707 84.6667 25.0374 84.2 25.704 82.6C26.3707 81 25.7707 79.7333 25.104 78.4L26.3707 77.1333C27.6374 77.7333 28.904 78.4 30.5707 77.7333C32.1707 77.0667 32.6374 75.7333 33.104 74.4H34.904C35.3707 75.8 35.8374 77.0667 37.4374 77.7333C39.104 78.4 40.3707 77.8 41.6374 77.1333L42.904 78.4C42.2374 79.7333 41.6374 80.9333 42.304 82.6C42.9707 84.2 44.304 84.6667 45.6374 85.1333V86.9333C44.2374 87.3333 42.9707 87.8 42.304 89.4667Z" fill="#FF7A33"/>
<path id="Vector_10" d="M33.9707 80.1333C30.7707 80.1333 28.104 82.7333 28.104 86C28.104 89.2666 30.704 91.8666 33.9707 91.8666C37.2373 91.8666 39.8373 89.2666 39.8373 86C39.8373 82.7333 37.1707 80.1333 33.9707 80.1333ZM33.8373 89.4666C31.904 89.4 30.3707 87.8 30.4373 85.8666C30.504 83.9333 32.104 82.4 34.0373 82.4666C35.9707 82.5333 37.504 84.1333 37.4373 86.0666C37.3707 88.0666 35.7707 89.5333 33.8373 89.4666Z" fill="#0082CD"/>
</g>
<g id="Group_7">
<g id="Group_8">
<path id="Vector_11" d="M81.504 62.2C80.9706 61.6667 81.0373 60.8 81.5706 60.2C82.104 59.6667 82.9706 59.6667 83.504 60.1333C83.7706 60.4 84.0373 60.6667 84.304 60.8667L84.4373 61V55.5333C84.4373 54.6 85.0373 53.9333 85.8373 53.9333C86.2373 53.9333 86.5706 54.0667 86.8373 54.3333C87.104 54.6 87.304 55.0667 87.304 55.5333V61C87.3706 60.9333 87.3706 60.9333 87.4373 60.8667C87.704 60.6 87.9706 60.3333 88.2373 60.1333C88.7706 59.6 89.6373 59.6 90.1706 60.1333C90.4373 60.4 90.6373 60.8 90.6373 61.2C90.6373 61.5333 90.504 61.8667 90.304 62.1333C89.2373 63.2667 88.104 64.3334 86.904 65.5334C86.6373 65.8 86.304 65.9333 85.9706 65.9333C85.6373 65.9333 85.304 65.8 85.0373 65.5334C83.7706 64.4667 82.6373 63.3333 81.504 62.2Z" fill="#0082CD"/>
<path id="Vector_12" d="M38.4373 57.8C38.9706 58.3333 38.904 59.2 38.3706 59.8C37.8373 60.3333 36.9706 60.3333 36.4373 59.8667C36.1706 59.6 35.904 59.3333 35.6373 59.1333L35.504 59V64.4667C35.504 65.4 34.904 66.0667 34.104 66.0667C33.704 66.0667 33.3706 65.9333 33.104 65.6667C32.7706 65.3333 32.6373 64.8667 32.6373 64.4V58.9333C32.5706 59 32.5706 59 32.504 59.0667C32.2373 59.3333 31.9706 59.6 31.704 59.8C31.1706 60.3333 30.304 60.3333 29.7706 59.8C29.504 59.5333 29.304 59.1333 29.304 58.7333C29.304 58.4 29.4373 58.0667 29.6373 57.8C30.704 56.6667 31.8373 55.6 33.0373 54.4C33.304 54.1333 33.6373 54 33.9706 54C34.304 54 34.6373 54.1333 34.904 54.4C36.1706 55.5333 37.304 56.6667 38.4373 57.8Z" fill="#0082CD"/>
</g>
<g id="Group_9">
<path id="Vector_13" d="M57.7707 81.5333C58.304 80.9999 59.1707 81.0666 59.7707 81.5999C60.304 82.1333 60.304 82.9999 59.8374 83.5333C59.5707 83.7999 59.304 84.0666 59.104 84.3333L58.9707 84.4666H64.4374C65.3707 84.4666 66.0374 85.0666 66.0374 85.8666C66.0374 86.2666 65.904 86.5999 65.6374 86.8666C65.3707 87.1333 64.904 87.3333 64.4374 87.3333H58.9707C59.0374 87.3999 59.0374 87.3999 59.104 87.4666C59.3707 87.7333 59.6374 87.9999 59.8374 88.2666C60.3707 88.7999 60.3707 89.6666 59.8374 90.1999C59.5707 90.4666 59.1707 90.6666 58.7707 90.6666C58.4374 90.6666 58.104 90.5333 57.8374 90.3333C56.704 89.2666 55.6374 88.1333 54.4374 86.9333C54.1707 86.6666 54.0374 86.3333 54.0374 85.9999C54.0374 85.6666 54.1707 85.3333 54.4374 85.0666C55.504 83.7999 56.6374 82.6666 57.7707 81.5333Z" fill="#0082CD"/>
<path id="Vector_14" d="M62.1707 38.4666C61.6374 38.9999 60.7707 38.9333 60.1707 38.3999C59.6374 37.8666 59.6374 36.9999 60.1041 36.4666C60.3707 36.1999 60.6374 35.9333 60.8374 35.6666L60.9707 35.5333H55.5041C54.5707 35.5333 53.9041 34.9333 53.9041 34.1333C53.9041 33.7333 54.0374 33.3999 54.3041 33.1333C54.5707 32.8666 55.0374 32.6666 55.5041 32.6666H60.9707C60.9041 32.5999 60.9041 32.5999 60.8374 32.5333C60.5707 32.2666 60.3041 31.9999 60.1041 31.7333C59.5707 31.1999 59.5707 30.3333 60.1041 29.7999C60.3707 29.5333 60.7707 29.3333 61.1707 29.3333C61.5041 29.3333 61.8374 29.4666 62.1041 29.6666C63.2374 30.7333 64.3041 31.8666 65.5041 33.0666C65.7707 33.3333 65.9041 33.6666 65.9041 33.9999C65.9041 34.3333 65.7707 34.6666 65.5041 34.9333C64.4374 36.1999 63.3041 37.3333 62.1707 38.4666Z" fill="#0082CD"/>
</g>
</g>
</g>
</g>
</svg>
