<svg width="120" height="120" viewBox="0 0 120 120" fill="none" xmlns="http://www.w3.org/2000/svg">
<g id="icon/color/ic_success">
<g id="Group">
<path id="Vector" d="M100 92.2C100 92.9333 99.5334 93.3999 98.8667 93.3999C98.2001 93.3999 97.7334 92.9333 97.7334 92.2666C97.7334 91.5333 98.1334 91.0666 98.8001 91.0666C99.5334 91 100 91.4666 100 92.2Z" fill="#FF7A33"/>
<path id="Vector_2" d="M48.3333 20C48.6667 20.2667 48.9333 20.5333 49 21C49.0667 21.6 48.8667 22.0667 48.3333 22.2667C47.8667 22.4667 47.3333 22.4 47 21.9333C46.6667 21.4667 46.6667 20.9333 47 20.4C47.0667 20.2667 47.2 20.1333 47.3333 20C47.6667 20 48 20 48.3333 20Z" fill="#FF7A33"/>
<path id="Vector_3" d="M87.6668 82.2C87.6668 82.8667 87.1335 83.4 86.4668 83.4C85.8002 83.4 85.3335 82.8667 85.3335 82.2C85.3335 81.5333 85.8668 81 86.4668 81C87.0668 81 87.6668 81.5333 87.6668 82.2Z" fill="#FF7A33"/>
<path id="Vector_4" d="M68.9334 26.2667C68.9334 26.9333 68.4667 27.4667 67.8001 27.4667C67.1334 27.4667 66.6667 26.9333 66.6667 26.2C66.6667 25.5333 67.1334 25.0667 67.8001 25.0667C68.4667 25.0667 68.9334 25.5333 68.9334 26.2667Z" fill="#FF7A33"/>
<path id="Vector_5" d="M64.1334 58.7332C64.1334 59.3999 63.6667 59.9332 63 59.9332C62.3334 59.9332 61.8667 59.3999 61.8667 58.6666C61.8667 57.9999 62.3334 57.5332 63 57.4666C63.6 57.5332 64.1334 58.0666 64.1334 58.7332Z" fill="#FF7A33"/>
<path id="Vector_6" d="M93.4667 69.6001C94.1334 69.6668 94.6001 70.2001 94.5334 70.8668C94.4667 71.5334 93.9334 72.0668 93.3334 72.0001C92.6667 71.9334 92.2667 71.4001 92.3334 70.6667C92.3334 70.0001 92.8667 69.5334 93.4667 69.6001Z" fill="#FF7A33"/>
<path id="Vector_7" d="M28.0001 73.5333C28.0001 74.1999 27.5334 74.7333 26.8667 74.7333C26.2001 74.7333 25.7334 74.1999 25.7334 73.5333C25.7334 72.8666 26.2001 72.3999 26.8001 72.3333C27.5334 72.3333 28.0001 72.8666 28.0001 73.5333Z" fill="#FF7A33"/>
<path id="Vector_8" d="M25.6668 93.0001C25.6668 93.6667 25.1335 94.2001 24.4668 94.2001C23.8001 94.2001 23.3335 93.6001 23.4001 92.9334C23.4001 92.2667 23.9335 91.8 24.5335 91.8C25.2001 91.8 25.7335 92.2667 25.6668 93.0001Z" fill="#FF7A33"/>
<path id="Vector_9" d="M22.3333 52.5999C22.3333 53.2666 21.8 53.7332 21.1333 53.7332C20.4666 53.7332 20 53.1999 20.0666 52.4666C20.0666 51.7999 20.5333 51.3332 21.2 51.3999C21.8666 51.3999 22.3333 51.9332 22.3333 52.5999Z" fill="#FF7A33"/>
<path id="Vector_10" d="M59.1334 35.0667C59.1334 35.8 58.6667 36.2667 57.9334 36.2667C57.2667 36.2667 56.8 35.7334 56.8667 35C56.8667 34.3334 57.3334 33.8667 58 33.8667C58.6667 33.8667 59.1334 34.3334 59.1334 35.0667Z" fill="#FF7A33"/>
<path id="Vector_11" d="M41.6668 64.3999C41.6668 65.1333 41.2001 65.5999 40.5335 65.5999C39.8668 65.5999 39.4001 65.1333 39.4001 64.3999C39.4001 63.6666 39.8001 63.2666 40.4668 63.2666C41.1335 63.2666 41.6001 63.6666 41.6668 64.3999Z" fill="#FF7A33"/>
<path id="Vector_12" d="M73.3333 98.8001C73.3333 99.5334 72.8667 100 72.2 100C71.5333 100 71.0667 99.5334 71.0667 98.8667C71.0667 98.1334 71.4666 97.6667 72.1333 97.6667C72.8667 97.6667 73.3333 98.0667 73.3333 98.8001Z" fill="#FF7A33"/>
<path id="Vector_13" d="M83.6001 54.2667C86.0668 52.5334 88.4668 50.7334 90.9334 49.0001C91.4668 48.6667 91.8001 48.2001 92.0001 47.6001C94.0668 41.1334 96.1334 34.6667 98.2668 28.2001C98.8001 26.5334 99.2001 24.8667 99.9334 23.2667C99.9334 22.9334 99.9334 22.6667 99.9334 22.3334C99.1334 21.3334 98.7334 21.2667 97.6668 22.0667C94.8001 24.1334 91.9334 26.2001 89.0668 28.2667C88.6001 28.6001 88.3334 28.6667 87.8668 28.2667C86.0001 26.8001 84.0001 25.4667 82.1334 24.0001C81.0001 23.0667 79.8668 23.1334 78.6668 23.7334C77.5334 24.3334 76.6001 25.1334 75.6668 26.0001C71.9334 29.7334 68.8668 34.0001 66.1334 38.4667C65.2001 39.9334 64.4001 41.5334 64.0668 43.3334C63.8001 44.7334 64.0001 45.9334 65.3334 46.8667C67.3334 48.2667 69.2668 49.7334 71.2668 51.2001C71.7334 51.5334 71.7334 51.8001 71.6001 52.2667C70.4668 55.6667 69.3334 59.0667 68.2668 62.5334C68.0668 63.1334 68.0668 63.7334 68.6668 64.1334C69.2668 64.5334 69.8001 64.4001 70.3334 64.0001C71.0001 63.5334 71.6668 63.0667 72.2668 62.6001C75.1334 60.5334 78.0001 58.4667 80.8668 56.4001C80.9334 56.5334 81.0001 56.5334 81.0001 56.6001C82.0668 60.2001 84.7334 62.0667 88.2668 62.7334C90.0668 63.0667 91.9334 63.2667 93.6668 64.0001C94.2668 64.2001 94.8668 64.4001 95.4001 64.6001C97.1334 65.1334 98.7334 63.8001 98.6001 62.0001C98.6001 61.6667 98.5334 61.3334 98.5334 61.0001C98.4668 59.0667 96.8001 58.0001 95.0001 58.8001C94.1334 59.2001 93.2001 59.5334 92.4001 60.0001C91.2001 60.6667 90.0001 60.7334 88.7334 60.4667C85.7334 59.9334 83.8001 58.2001 83.1334 55.5334C83.1334 54.8667 83.2001 54.6001 83.6001 54.2667ZM95.9334 60.8667C96.2001 60.7334 96.2668 60.8667 96.2668 61.1334C96.2668 61.4667 96.2668 61.8667 96.2668 62.2667C95.6668 62.0667 95.1334 61.8667 94.4668 61.6667C94.8668 61.2001 95.4668 61.1334 95.9334 60.8667ZM80.0668 25.6667C80.0668 29.4001 71.2001 42.0001 66.5334 44.0667C69.4001 36.8001 73.8668 30.7334 80.0668 25.6667ZM68.4668 46.0001C74.4001 41.4001 79.4668 34.4667 82.4668 27.1334C84.2001 28.4001 85.8668 29.6667 87.6001 30.9334C87.9334 31.2001 87.8668 31.4667 87.8001 31.7334C87.2668 33.7334 86.3334 35.5334 85.2668 37.2667C82.7334 41.4001 79.8668 45.2667 76.2001 48.4667C74.2668 50.2001 74.2668 50.2001 72.2001 48.6667C70.8668 47.8001 69.6668 46.9334 68.4668 46.0001ZM72.0001 59.7334C71.9334 59.8001 71.8668 59.8001 71.6668 59.8667C72.2001 58.2667 72.6668 56.7334 73.1334 55.2667C73.2001 55.1334 73.2668 55.0001 73.2668 54.8001C73.6668 53.4001 74.2001 52.3334 75.7334 51.6001C77.9334 50.6001 79.5334 48.6667 81.1334 46.8001C84.4668 43.0001 87.4001 38.9334 89.4001 34.2001C89.8668 33.1334 90.2001 32.0001 90.1334 30.8001C90.1334 30.5334 90.2001 30.4001 90.4001 30.2001C92.4001 28.8001 94.4001 27.3334 96.5334 25.8001C95.7334 28.2001 95.0668 30.3334 94.3334 32.5334C92.8001 37.1334 91.3334 41.8001 89.8001 46.4001C89.6668 46.7334 89.6001 47.0001 89.2668 47.2001C83.6001 51.4001 77.8001 55.6001 72.0001 59.7334Z" fill="#0082CD"/>
<path id="Vector_14" d="M60.6667 51.8667C56.0667 44.6667 51.4667 37.5333 46.9334 30.3333C46.6667 29.8667 46.3334 29.6 45.8667 29.4C39.3334 26.9333 32.8001 24.4 26.2667 21.8667C24.8001 21.2667 23.2001 20.8 21.7334 20C21.4001 20 21.0001 20 20.6667 20C19.8001 20.9333 19.8001 21.2 20.5334 22.2667C22.4001 25.2667 24.3334 28.2 26.2001 31.2C26.4667 31.6667 26.4667 31.9333 26.1334 32.3333C24.5334 34.2 23.0001 36.1333 21.4001 38C20.7334 38.7333 20.6667 39.6 20.9334 40.4667C21.2001 41.3333 21.6667 42.0667 22.1334 42.8C25.8001 47.7333 30.3334 51.7333 35.6001 54.8C37.1334 55.7333 38.6667 56.6 40.4667 56.9333C41.5334 57.1333 42.4001 56.9333 43.1334 56C44.4001 54.4667 45.6667 52.9333 46.9334 51.4667C47.4667 50.8667 47.8001 49.9333 48.4667 49.8C49.1334 49.6667 49.9334 50.2667 50.6667 50.5333C50.9334 50.6 51.1334 50.7333 51.0667 51.0667C51.0667 54.6667 51.5334 58.3333 49.5334 61.6667C49.4001 61.8667 49.3334 62.0667 49.2667 62.3333C48.8001 63.6667 49.4667 65 50.8001 65.4C51.7334 65.6667 52.6667 65.6667 53.6001 65.4C55.0667 65 55.7334 63.5333 55.2001 62.1333C54.6667 60.6667 53.8001 59.2667 53.6001 57.8C53.3334 55.8 53.5334 53.7333 53.5334 51.6C55.4001 52.3333 57.2001 53 59.0001 53.7333C59.6001 54 60.2001 54.0667 60.6001 53.4667C61.2001 53 61.0001 52.4667 60.6667 51.8667ZM46.6667 48.1333C45.3334 49.6667 44.0667 51.2667 42.7334 52.8C42.2667 52.2 41.8667 51.5333 41.4001 50.9333C40.8667 50.2667 40.3334 50.1333 39.7334 50.6C39.1334 51 39.0001 51.6667 39.5334 52.3333C40.0001 53 40.5334 53.6667 40.8667 54.4667C37.0001 54 25.5334 44.8667 23.2667 40C24.5334 40.1333 25.6667 40.6667 26.6667 41.2C29.2667 42.5333 31.4001 44.4667 33.6001 46.4C34.1334 46.8667 34.6667 47.4 35.2001 47.8667C35.7334 48.3333 36.4001 48.3333 36.8667 47.8C37.3334 47.3333 37.3334 46.6 36.8001 46.1333C33.3334 42.8667 29.7334 39.7333 25.1334 38C24.6001 37.8 24.7334 37.6667 25.0001 37.4C26.2001 35.9333 27.4001 34.4667 28.6001 33C28.8667 32.6667 29.1334 32.6 29.5334 32.7333C31.5334 33.4 33.3334 34.4667 35.0001 35.6C38.9334 38.2667 42.5334 41.3333 45.4667 45.0667C45.9334 45.6667 46.3334 46.2667 46.7334 46.9333C47.0001 47.4 47.0001 47.7333 46.6667 48.1333ZM50.5334 48C49.8001 47.7333 49.3334 47.4 49.1334 46.6C48.7334 45.2 47.8001 44.0667 46.8001 42.9333C42.6001 38.1333 37.8001 34.1333 32.1334 31.2667C31.0667 30.7333 30.0001 30.2667 28.8001 30.3333C28.4667 30.3333 28.3334 30.2 28.2001 29.9333C26.8667 27.8667 25.6001 25.8667 24.2001 23.6C25.4667 24.0667 26.5334 24.4667 27.6001 24.8667C33.2001 27 38.7334 29.2 44.3334 31.3333C44.7334 31.4667 45.0001 31.7333 45.2667 32.0667C47.1334 35 49.0001 37.9333 50.8667 40.8667C51.0667 41.1333 51.2001 41.4667 51.2001 41.8C51.2001 43.7333 51.2001 45.6 51.2001 47.5333C51.2001 48.2 51.0001 48.1333 50.5334 48ZM51.6667 63.2C51.7334 62.6 52.0667 62.0667 52.3334 61.2667C52.6001 62 52.8667 62.5333 53.0667 63.2C52.6001 63.2 52.1334 63.2 51.6667 63.2ZM53.8001 49.2C53.5334 49.0667 53.5334 48.8667 53.5334 48.6667C53.5334 47.6 53.5334 46.5333 53.5334 45.4667C53.6001 45.4667 53.6001 45.4 53.6667 45.4C54.6667 47 55.6667 48.5333 56.8001 50.3333C55.7334 49.9333 54.8001 49.6 53.8001 49.2Z" fill="#0082CD"/>
<path id="Vector_15" d="M85.2668 67.9332C85.0668 67.1999 84.5334 66.9999 83.8001 66.9999C79.2668 66.9332 74.6668 66.7999 70.1334 66.7332C65.6668 66.6666 61.2668 66.5999 56.8001 66.4666C56.2001 66.4666 55.6668 66.5999 55.1334 66.9332C47.7334 72.1999 40.4001 77.3332 33.0001 82.5332C32.4668 82.9332 32.0668 83.3999 32.2668 84.0666C32.4668 84.7332 33.0001 84.9332 33.6668 84.9332C35.2668 84.9332 36.8668 84.9999 38.4001 84.9999C39.1334 84.9999 39.2668 85.1999 39.2668 85.8666C39.2668 87.7999 39.2668 89.7999 39.2668 91.7332C39.2668 92.1332 39.2001 92.4666 39.0668 92.7999C38.5334 94.0666 37.9334 95.3332 37.4668 96.6666C36.8001 98.3332 37.9334 99.9999 39.7334 99.9999C40.1334 99.9999 40.5334 99.9999 41.0001 99.9999C42.8668 99.9999 44.0001 98.3999 43.3334 96.5999C43.0668 95.7999 42.7334 95.0666 42.4668 94.2666C42.2001 93.5332 41.7334 92.7999 41.7334 91.9999C41.6668 89.8666 41.6668 87.7332 41.6001 85.5999C41.6001 85.1999 41.6668 85.0666 42.1334 85.0666C43.2001 85.1332 44.2668 85.1332 45.3334 85.1332C45.8001 85.1332 46.0668 85.2666 46.2001 85.7332C46.9334 88.2666 47.7334 90.8666 48.5334 93.3999C48.8668 94.5332 49.1334 94.7332 50.2668 94.7999C54.0001 95.0666 57.6668 94.8666 61.2668 94.0666C66.9334 92.7999 72.0001 90.3332 76.5334 86.7332C77.1334 86.2666 77.3334 85.7332 77.1334 84.9332C76.3334 82.3999 75.6001 79.7999 74.7334 77.1999C74.5334 76.6666 74.6668 76.3999 75.1334 76.0666C78.2668 73.8666 81.4001 71.6666 84.6001 69.4666C85.0001 69.0666 85.4668 68.6666 85.2668 67.9332ZM41.0001 97.6666C39.6001 97.7332 39.6001 97.7332 40.1334 96.3999C40.2001 96.1999 40.3334 95.9999 40.4668 95.6666C40.7334 96.3332 40.9334 96.9332 41.2001 97.5332C41.0668 97.5999 41.0001 97.6666 41.0001 97.6666ZM75.8001 72.6666C73.5334 74.2666 71.2668 75.8666 69.0001 77.4666C68.5334 77.7999 68.1334 78.1332 68.2668 78.7332C68.4001 79.6666 69.3334 80.1332 70.1334 79.5999C70.9334 79.1332 71.6668 78.5332 72.4668 77.9999C73.2001 80.3332 73.8668 82.5332 74.5334 84.7999C74.6668 85.1332 74.5334 85.3332 74.2668 85.5332C69.8001 88.9332 64.8001 91.1332 59.2668 92.1332C56.6001 92.5999 53.9334 92.6666 51.2668 92.5999C50.9334 92.5999 50.6668 92.5999 50.5334 92.1999C49.8668 89.9332 49.2001 87.6666 48.5334 85.5999C52.6001 85.5999 56.6668 85.5999 60.6668 85.5999C61.3334 85.5999 61.9334 85.4666 62.4668 85.0666C63.2668 84.4666 64.0668 83.9332 64.8668 83.3332C65.5334 82.8666 65.6001 82.2666 65.2001 81.6666C64.8001 81.0666 64.2001 80.9999 63.5334 81.3999C63.2001 81.5999 62.8001 81.8666 62.5334 82.1332C61.4668 83.1332 60.2668 83.2666 58.8001 83.1999C52.2001 82.9999 45.6668 82.9332 39.0668 82.7999C38.4668 82.7999 37.8668 82.7999 37.2668 82.7332C38.6001 81.7332 39.8001 80.5999 41.6001 80.2666C47.3334 79.3332 53.0668 78.3332 58.7334 77.3332C59.6001 77.1999 59.9334 76.7999 59.8668 75.9999C59.8001 75.2666 59.3334 74.8666 58.4001 74.9999C55.5334 75.4666 52.6668 75.9999 49.8001 76.4666C48.2001 76.7332 46.5334 76.9999 44.7334 77.3332C46.5334 76.0666 48.1334 74.9332 49.7334 73.7999C51.8668 72.3332 53.9334 70.8666 56.0668 69.3332C56.3334 69.1332 56.6668 68.9332 57.0668 68.9332C64.8001 69.1332 72.5334 69.2666 80.2668 69.3999C80.2668 69.3999 80.2668 69.3999 80.4001 69.4666C78.8001 70.5332 77.3334 71.5999 75.8001 72.6666Z" fill="#0082CD"/>
</g>
</g>
</svg>
