<svg width="120" height="120" viewBox="0 0 120 120" fill="none" xmlns="http://www.w3.org/2000/svg">
<g filter="url(#filter0_d_3065_6736)">
<path d="M66.2502 29.7947C64.0002 30.2936 61.7502 32.2894 60.0002 32.2894C58.2502 32.2894 56.2502 30.2936 53.7502 29.7947C48.7502 29.0463 41.5002 32.5389 41.5002 43.5158C41.5002 54.4926 49.2502 62.9748 52.7502 62.9748C56.5002 62.9748 57.0002 61.2284 60.0002 61.2284C63.0002 61.2284 63.5002 62.9748 67.2502 62.9748C70.5002 62.9748 78.5002 54.2432 78.5002 43.5158C78.5002 32.7884 71.2502 29.2957 66.2502 29.7947Z" fill="url(#paint0_radial_3065_6736)"/>
<path d="M60.5 34.2852C60.5 34.2852 53 23.3083 69.75 20.0651C70.5 19.8157 71 20.3146 71.25 21.063C72 24.3062 73 33.5368 60.5 34.2852Z" fill="#A0C151"/>
<path d="M71.2499 21.0629C71.2499 20.5639 70.9999 20.3145 70.4999 20.3145C64.9999 26.3018 60.4999 34.285 60.4999 34.285C72.9999 33.5366 71.9999 24.306 71.2499 21.0629Z" fill="url(#paint1_linear_3065_6736)"/>
<path d="M68.4999 25.304C68.2499 25.304 68.2499 25.304 67.9999 25.304C67.7499 25.304 67.7499 25.304 67.4999 25.304C67.2499 25.304 67.2499 25.304 66.9999 25.304C66.7499 25.304 66.7499 25.304 66.4999 25.304C66.4999 25.304 66.2499 25.304 66.2499 25.5534C66.2499 25.304 66.4999 25.304 66.4999 25.0545L66.9999 24.3061C67.2499 24.0566 67.2499 23.8071 67.4999 23.5576C67.7499 23.0587 68.2499 22.5597 68.4999 22.0608V22.5597L68.2499 22.8092C68.2499 22.8092 68.2499 22.8092 67.9999 23.0587C67.7499 23.3082 67.4999 23.5576 67.2499 23.8071C66.7499 24.3061 66.4999 24.805 65.9999 25.304L65.7499 25.5534V25.304C65.7499 25.0545 65.7499 25.0545 65.7499 24.805C65.7499 24.5555 65.7499 24.5555 65.7499 24.3061C65.7499 24.0566 65.7499 24.0566 65.7499 23.8071C65.7499 23.5576 65.7499 23.3082 65.7499 23.0587C65.7499 23.3082 65.4999 23.5576 65.4999 23.8071C65.4999 24.0566 65.4999 24.0566 65.4999 24.3061C65.4999 24.5555 65.4999 24.5555 65.4999 24.805C65.4999 25.0545 65.4999 25.0545 65.4999 25.304C65.4999 25.5534 65.4999 25.5534 65.4999 25.8029C65.4999 26.0524 65.4999 26.5513 65.2499 26.8008C64.9999 27.2998 64.4999 27.7987 64.2499 28.0482C64.2499 27.7987 64.2499 27.7987 64.2499 27.5492C64.2499 27.2998 64.2499 27.2998 63.9999 27.0503L63.7499 26.8008C63.7499 26.5513 63.7499 26.5513 63.4999 26.3019C63.4999 26.0524 63.4999 26.0524 63.4999 25.8029C63.4999 25.5534 63.2499 25.304 63.2499 25.0545C63.2499 25.304 63.2499 25.5534 63.2499 25.8029C63.2499 26.0524 63.2499 26.0524 63.2499 26.3019C63.2499 26.5513 63.2499 26.5513 63.2499 26.8008C63.2499 27.0503 63.2499 27.0503 63.2499 27.2998C63.2499 27.5492 63.2499 27.5492 63.4999 27.7987C63.4999 27.7987 63.4999 27.7987 63.4999 28.0482C63.7499 28.2976 63.7499 28.7966 63.4999 29.0461C63.2499 29.2955 63.2499 29.545 62.9999 29.7945C62.7499 29.545 62.4999 29.7945 62.2499 30.044V29.7945C62.2499 29.545 62.2499 29.545 61.9999 29.2955L61.7499 29.0461C61.7499 28.7966 61.7499 28.7966 61.4999 28.5471C61.4999 28.2976 61.4999 28.2976 61.4999 28.0482C61.4999 27.7987 61.2499 27.5492 61.2499 27.2998C61.2499 27.5492 61.2499 27.7987 61.2499 28.0482C61.2499 28.2976 61.2499 28.2976 61.2499 28.5471C61.2499 28.7966 61.2499 28.7966 61.2499 29.0461C61.2499 29.2955 61.2499 29.2955 61.2499 29.545C61.2499 29.7945 61.2499 29.7945 61.4999 30.044C61.4999 30.2934 61.7499 30.2934 61.7499 30.2934C61.7499 30.5429 61.9999 30.5429 61.7499 30.7924C61.4999 31.2913 61.2499 32.0398 60.9999 32.2892C60.7499 32.7882 60.4999 33.5366 60.4999 34.0356C60.9999 33.5366 61.4999 33.2871 61.7499 32.7882C62.2499 32.2892 62.4999 31.7903 62.9999 31.2913C62.9999 31.0419 63.2499 31.0419 63.4999 31.0419C63.7499 31.0419 63.7499 31.0419 63.9999 31.0419C64.2499 31.0419 64.2499 31.0419 64.4999 31.0419C64.7499 31.0419 64.7499 31.0419 64.9999 31.0419C65.2499 31.0419 65.2499 31.0419 65.4999 31.0419C65.7499 31.0419 65.7499 31.0419 65.9999 30.7924C66.2499 30.7924 66.4999 30.5429 66.7499 30.2934C66.4999 30.2934 66.2499 30.2934 65.9999 30.2934C65.7499 30.2934 65.7499 30.2934 65.4999 30.2934C65.2499 30.2934 65.2499 30.2934 64.9999 30.2934C64.7499 30.2934 64.7499 30.2934 64.4999 30.2934C64.2499 30.2934 64.2499 30.2934 63.9999 30.2934C63.7499 30.2934 63.7499 30.2934 63.4999 30.2934C63.7499 30.044 63.7499 29.7945 63.9999 29.545C63.9999 29.2955 64.2499 29.0461 64.4999 28.7966C64.7499 28.5471 64.9999 28.2976 65.2499 28.5471C65.4999 28.5471 65.4999 28.5471 65.7499 28.5471C65.9999 28.5471 65.9999 28.5471 66.2499 28.5471C66.4999 28.5471 66.4999 28.5471 66.7499 28.5471C66.9999 28.5471 66.9999 28.5471 67.2499 28.5471C67.4999 28.5471 67.4999 28.5471 67.7499 28.2976C67.9999 28.2976 68.2499 28.0482 68.4999 27.7987C68.2499 27.7987 67.9999 27.7987 67.7499 27.7987C67.4999 27.7987 67.4999 27.7987 67.2499 27.7987C66.9999 27.7987 66.9999 27.7987 66.7499 27.7987C66.4999 27.7987 66.4999 27.7987 66.2499 27.7987C65.9999 27.7987 65.9999 27.7987 65.7499 27.7987C65.4999 27.7987 65.2499 27.7987 64.9999 28.0482C65.2499 27.5492 65.4999 27.0503 65.9999 26.5513C66.2499 26.3019 66.4999 26.0524 66.9999 26.0524H67.2499C67.4999 26.0524 67.4999 26.0524 67.7499 25.8029C67.9999 25.8029 67.9999 25.5534 68.2499 25.5534C68.4999 25.5534 68.4999 25.304 68.7499 25.304L68.9999 25.0545C68.9999 25.304 69.2499 25.0545 69.2499 25.0545C68.9999 25.0545 68.7499 25.0545 68.4999 25.304Z" fill="url(#paint2_linear_3065_6736)"/>
<path d="M60.7499 35.2832C60.4999 35.2832 59.9999 35.2832 59.7499 35.2832C59.4999 35.2832 59.2499 35.2832 58.9999 35.2832C58.9999 33.5369 58.7499 31.5411 58.2499 29.5453C57.9999 28.2979 57.4999 27.0505 56.7499 26.0526C55.7499 24.0568 54.4999 23.3084 54.4999 23.3084C53.9999 23.0589 53.9999 22.56 54.2499 22.061C54.4999 21.5621 54.9999 21.5621 55.4999 21.8116C55.7499 21.8116 58.4999 24.0568 59.7499 29.2958C60.4999 31.0421 60.7499 33.0379 60.7499 35.2832Z" fill="#676B6D"/>
<path d="M66.5001 33.2871C66.2501 33.7861 65.7501 34.285 65.2501 34.5345C64.7501 34.784 64.2501 35.0334 63.5001 35.2829C62.2501 35.7819 61.0001 35.7819 59.7501 35.7819C58.5001 35.7819 57.2501 35.5324 56.0001 35.2829C55.7501 35.0334 55.0001 34.784 54.5001 34.5345C54.0001 34.285 53.5001 33.7861 53.2501 33.2871C53.5001 33.2871 53.5001 33.5366 53.5001 33.5366C53.5001 33.5366 53.7501 33.7861 54.0001 33.7861C54.2501 34.0355 54.5001 34.0355 54.7501 34.0355C55.2501 34.285 55.7501 34.285 56.5001 34.5345C57.5001 34.784 58.7501 34.784 60.0001 34.784C61.2501 34.784 62.2501 34.784 63.5001 34.5345C64.0001 34.5345 64.5001 34.285 65.2501 34.0355C65.5001 34.0355 65.7501 33.7861 66.0001 33.7861C66.0001 33.5366 66.2501 33.2871 66.5001 33.2871Z" fill="#676B6D"/>
<path d="M100 89.6689V97.9015C100 98.8994 99 99.8973 98 99.8973H26.25C24.5 99.8973 23 99.1489 22 98.151C20.75 96.9036 20 95.4068 20 93.6604C20 90.1678 22.75 87.4236 26.25 87.4236H98C99 87.6731 100 88.4215 100 89.6689Z" fill="url(#paint3_linear_3065_6736)"/>
<path d="M100 89.6689V97.9015C100 98.8994 99 99.8973 98 99.8973H26.25C24.5 99.8973 23 99.1489 22 98.151C20.75 96.9036 20 95.4068 20 93.6604C20 90.1678 22.75 87.4236 26.25 87.4236H98C99 87.6731 100 88.4215 100 89.6689Z" fill="url(#paint4_linear_3065_6736)"/>
<path d="M95.4999 98.3999H26.4999C23.9999 98.3999 21.7499 96.4041 21.7499 93.6599C21.7499 91.1652 23.7499 88.9199 26.4999 88.9199H95.7499C96.7499 88.9199 97.4999 89.6683 97.4999 90.6662V96.1547C97.4999 97.402 96.7499 98.3999 95.4999 98.3999Z" fill="url(#paint5_linear_3065_6736)"/>
<path d="M22.5 95.9053C23.25 97.4021 24.75 98.4 26.5 98.4H95.5C96.75 98.4 97.5 97.4021 97.5 96.4042V95.9053H22.5Z" fill="url(#paint6_linear_3065_6736)"/>
<path d="M26.5001 98.4H95.5001C96.7501 98.4 97.5001 97.4021 97.5001 96.4042V93.9094H22.0001C22.0001 96.4042 24.0001 98.4 26.5001 98.4Z" fill="url(#paint7_linear_3065_6736)"/>
<path d="M22.5001 91.6643C22.2501 92.4127 22.0001 92.9117 22.0001 93.9096C22.0001 96.4043 24.0001 98.6496 26.7501 98.6496H95.7501C97.0001 98.6496 97.7501 97.6517 97.7501 96.6538V91.9138L22.5001 91.6643Z" fill="url(#paint8_linear_3065_6736)"/>
<path d="M48.75 91.6643L57 99.897H37.5V91.6643H48.75Z" fill="url(#paint9_linear_3065_6736)"/>
<path d="M37.0001 91.6643V99.6475C37.0001 99.897 37.5001 99.897 37.5001 99.897L42.2501 96.6538C42.5001 96.4043 43.0001 96.4043 43.2501 96.6538L48.0001 99.897C48.2501 100.146 48.5001 99.897 48.5001 99.6475V91.6643H37.0001Z" fill="url(#paint10_linear_3065_6736)"/>
<path d="M21.5002 77.1948V85.4274C21.5002 86.4253 22.5002 87.4232 23.5002 87.4232H94.0002C95.7502 87.4232 97.2502 86.6748 98.2502 85.6769C99.2502 84.679 100 82.9327 100 81.4358C100 77.9432 97.2502 75.199 93.7502 75.199H23.2502C22.2502 75.4484 21.5002 76.1969 21.5002 77.1948Z" fill="#A0C151"/>
<path d="M23.25 75.4485H52.75C51.75 75.4485 50.75 76.4464 50.75 77.4443V85.6769C50.75 86.6748 51.75 87.6727 52.75 87.6727H23.25C22.25 87.6727 21.25 86.6748 21.25 85.6769V77.4443C21.5 76.1969 22.25 75.4485 23.25 75.4485Z" fill="url(#paint11_linear_3065_6736)"/>
<path d="M22 86.1761H93.25C95.75 86.1761 98 84.1803 98 81.4361C98 78.9413 96 76.696 93.25 76.696H21.75C20.75 76.696 20 77.4445 20 78.4424V83.9308C20 85.1782 21 86.1761 22 86.1761Z" fill="url(#paint12_linear_3065_6736)"/>
<path d="M97.5 83.6814C96.75 85.1782 95.25 86.1761 93.5 86.1761H22C20.75 86.1761 20 85.1782 20 84.1803V83.6814H97.5Z" fill="url(#paint13_linear_3065_6736)"/>
<path d="M93.5 86.1761H22C20.75 86.1761 20 85.1782 20 84.1803V81.6855H98C98 83.9308 96 86.1761 93.5 86.1761Z" fill="url(#paint14_linear_3065_6736)"/>
<path d="M97.5 79.4397C97.75 80.1881 98 80.6871 98 81.685C98 84.1797 96 86.425 93.25 86.425H22C20.75 86.425 20 85.4271 20 84.4292V79.6892L97.5 79.4397Z" fill="url(#paint15_linear_3065_6736)"/>
<path d="M21.75 76.9451H50.75C50.75 77.1945 50.75 77.1945 50.75 77.444V85.6767C50.75 85.9261 50.75 85.9261 50.75 86.1756H22C20.75 86.1756 20 85.1777 20 84.1798V78.6914C20 77.6935 20.75 76.9451 21.75 76.9451Z" fill="url(#paint16_linear_3065_6736)"/>
<path d="M98.5 64.9706V73.2033C98.5 74.2012 97.5 75.1991 96.5 75.1991H26.25C24.5 75.1991 23 74.4507 22 73.4528C21 72.4549 20 70.958 20 69.2117C20 65.7191 22.75 62.9749 26.25 62.9749H96.75C97.75 62.9749 98.5 63.9727 98.5 64.9706Z" fill="url(#paint17_linear_3065_6736)"/>
<path d="M96.7501 75.4486C97.7501 75.4486 98.7501 74.4507 98.7501 73.4528V64.9706C98.7501 63.9727 97.7501 62.9749 96.7501 62.9749H52.0001L64.2501 75.1991L96.7501 75.4486Z" fill="url(#paint18_linear_3065_6736)"/>
<path d="M96.7501 62.9749H67.0001C68.0001 62.9749 69.0001 63.9727 69.0001 64.9706V73.2033C69.0001 74.2012 68.0001 75.1991 67.0001 75.1991H96.5001C97.5001 75.1991 98.5001 74.2012 98.5001 73.2033V64.9706C98.5001 63.9727 97.7501 62.9749 96.7501 62.9749Z" fill="url(#paint19_linear_3065_6736)"/>
<path d="M97.9999 73.9515H26.4999C23.9999 73.9515 21.7499 71.9557 21.7499 69.2115C21.7499 66.7167 23.7499 64.4714 26.4999 64.4714H97.9999C98.9999 64.4714 99.7499 65.2199 99.7499 66.2178V71.7062C99.9999 72.9536 98.9999 73.9515 97.9999 73.9515Z" fill="url(#paint20_linear_3065_6736)"/>
<path d="M22.5 71.4568C23.25 72.9536 24.75 73.9515 26.5 73.9515H97.75C99 73.9515 99.75 72.9536 99.75 71.9557V71.4568H22.5Z" fill="url(#paint21_linear_3065_6736)"/>
<path d="M26.5001 73.9515H97.7501C99.0001 73.9515 99.7501 72.9536 99.7501 71.9557V69.4609H22.0001C22.0001 71.7062 24.0001 73.9515 26.5001 73.9515Z" fill="url(#paint22_linear_3065_6736)"/>
<path d="M22.5001 66.9661C22.2501 67.7145 22.0001 68.2134 22.0001 69.2113C22.0001 71.7061 24.0001 73.9513 26.7501 73.9513H98.0001C99.2501 73.9513 100 72.9534 100 71.9556V67.2155L22.5001 66.9661Z" fill="url(#paint23_linear_3065_6736)"/>
<path d="M98.2502 64.4714H69.0002C69.0002 64.7209 69.0002 64.7209 69.0002 64.9704V73.203C69.0002 73.4525 69.0002 73.4525 69.0002 73.702H98.0002C99.2502 73.702 100 72.7041 100 71.7062V66.2178C100 65.4693 99.2502 64.4714 98.2502 64.4714Z" fill="url(#paint24_linear_3065_6736)"/>
</g>
<defs>
<filter id="filter0_d_3065_6736" x="0" y="0" width="124" height="124" filterUnits="userSpaceOnUse" color-interpolation-filters="sRGB">
<feFlood flood-opacity="0" result="BackgroundImageFix"/>
<feColorMatrix in="SourceAlpha" type="matrix" values="0 0 0 0 0 0 0 0 0 0 0 0 0 0 0 0 0 0 127 0" result="hardAlpha"/>
<feOffset dx="2" dy="2"/>
<feGaussianBlur stdDeviation="1"/>
<feColorMatrix type="matrix" values="0 0 0 0 0.0941176 0 0 0 0 0.564706 0 0 0 0 1 0 0 0 0.24 0"/>
<feBlend mode="normal" in2="BackgroundImageFix" result="effect1_dropShadow_3065_6736"/>
<feBlend mode="normal" in="SourceGraphic" in2="effect1_dropShadow_3065_6736" result="shape"/>
</filter>
<radialGradient id="paint0_radial_3065_6736" cx="0" cy="0" r="1" gradientUnits="userSpaceOnUse" gradientTransform="translate(51.3703 38.5627) scale(26.9395 26.8717)">
<stop stop-color="#E76A66"/>
<stop offset="0.2389" stop-color="#DD5D5C"/>
<stop offset="0.473" stop-color="#D24F51"/>
<stop offset="0.7053" stop-color="#C24045"/>
<stop offset="0.9327" stop-color="#C24045"/>
<stop offset="1" stop-color="#C24045"/>
</radialGradient>
<linearGradient id="paint1_linear_3065_6736" x1="69.1751" y1="29.3931" x2="61.9319" y2="25.3532" gradientUnits="userSpaceOnUse">
<stop stop-color="#3CAF88" stop-opacity="0"/>
<stop offset="1" stop-color="#009851"/>
</linearGradient>
<linearGradient id="paint2_linear_3065_6736" x1="62.9829" y1="27.0193" x2="65.008" y2="28.7003" gradientUnits="userSpaceOnUse">
<stop stop-color="#3CAF88" stop-opacity="0"/>
<stop offset="1" stop-color="#009851"/>
</linearGradient>
<linearGradient id="paint3_linear_3065_6736" x1="46.9402" y1="79.1993" x2="88.9645" y2="122.474" gradientUnits="userSpaceOnUse">
<stop stop-color="#00A8E7"/>
<stop offset="1" stop-color="#2AA0DB"/>
</linearGradient>
<linearGradient id="paint4_linear_3065_6736" x1="59.7587" y1="89.247" x2="61.2906" y2="106.9" gradientUnits="userSpaceOnUse">
<stop stop-color="#007BC2" stop-opacity="0"/>
<stop offset="1" stop-color="#007BC2"/>
</linearGradient>
<linearGradient id="paint5_linear_3065_6736" x1="59.7574" y1="90.5606" x2="59.7574" y2="98.3172" gradientUnits="userSpaceOnUse">
<stop stop-color="#FAFAFB"/>
<stop offset="1" stop-color="#F0E6F1"/>
</linearGradient>
<linearGradient id="paint6_linear_3065_6736" x1="59.9284" y1="98.7676" x2="60.4073" y2="86.4114" gradientUnits="userSpaceOnUse">
<stop stop-color="#F0E6F1" stop-opacity="0"/>
<stop offset="0.2889" stop-color="#D0C8E3" stop-opacity="0.289"/>
<stop offset="0.5915" stop-color="#B1ABD2" stop-opacity="0.592"/>
<stop offset="0.8395" stop-color="#9D9AC4" stop-opacity="0.84"/>
<stop offset="1" stop-color="#9693C0"/>
</linearGradient>
<linearGradient id="paint7_linear_3065_6736" x1="59.7576" y1="96.0913" x2="59.7576" y2="90.6651" gradientUnits="userSpaceOnUse">
<stop stop-color="#F0E6F1" stop-opacity="0"/>
<stop offset="0.2889" stop-color="#D0C8E3" stop-opacity="0.289"/>
<stop offset="0.5915" stop-color="#B1ABD2" stop-opacity="0.592"/>
<stop offset="0.8395" stop-color="#9D9AC4" stop-opacity="0.84"/>
<stop offset="1" stop-color="#9693C0"/>
</linearGradient>
<linearGradient id="paint8_linear_3065_6736" x1="59.8113" y1="93.2684" x2="59.922" y2="89.5014" gradientUnits="userSpaceOnUse">
<stop stop-color="#F0E6F1" stop-opacity="0"/>
<stop offset="0.2889" stop-color="#D0C8E3" stop-opacity="0.289"/>
<stop offset="0.5915" stop-color="#B1ABD2" stop-opacity="0.592"/>
<stop offset="0.8395" stop-color="#9D9AC4" stop-opacity="0.84"/>
<stop offset="1" stop-color="#9693C0"/>
</linearGradient>
<linearGradient id="paint9_linear_3065_6736" x1="47.2891" y1="100.112" x2="45.3749" y2="92.5567" gradientUnits="userSpaceOnUse">
<stop stop-color="#F0E6F1" stop-opacity="0"/>
<stop offset="0.2889" stop-color="#D0C8E3" stop-opacity="0.289"/>
<stop offset="0.5915" stop-color="#B1ABD2" stop-opacity="0.592"/>
<stop offset="0.8395" stop-color="#9D9AC4" stop-opacity="0.84"/>
<stop offset="1" stop-color="#9693C0"/>
</linearGradient>
<linearGradient id="paint10_linear_3065_6736" x1="40.2747" y1="92.3112" x2="48.0821" y2="102.489" gradientUnits="userSpaceOnUse">
<stop stop-color="#EE895F"/>
<stop offset="1" stop-color="#E24029"/>
</linearGradient>
<linearGradient id="paint11_linear_3065_6736" x1="27.058" y1="81.5329" x2="64.6014" y2="81.5329" gradientUnits="userSpaceOnUse">
<stop stop-color="#3CAF88" stop-opacity="0"/>
<stop offset="1" stop-color="#009851"/>
</linearGradient>
<linearGradient id="paint12_linear_3065_6736" x1="59.0034" y1="78.281" x2="59.0034" y2="86.0379" gradientUnits="userSpaceOnUse">
<stop stop-color="#FAFAFB"/>
<stop offset="1" stop-color="#F0E6F1"/>
</linearGradient>
<linearGradient id="paint13_linear_3065_6736" x1="58.8337" y1="86.5166" x2="58.3464" y2="73.9451" gradientUnits="userSpaceOnUse">
<stop stop-color="#F0E6F1" stop-opacity="0"/>
<stop offset="0.2889" stop-color="#D0C8E3" stop-opacity="0.289"/>
<stop offset="0.5915" stop-color="#B1ABD2" stop-opacity="0.592"/>
<stop offset="0.8395" stop-color="#9D9AC4" stop-opacity="0.84"/>
<stop offset="1" stop-color="#9693C0"/>
</linearGradient>
<linearGradient id="paint14_linear_3065_6736" x1="59.0034" y1="83.8119" x2="59.0034" y2="78.3858" gradientUnits="userSpaceOnUse">
<stop stop-color="#F0E6F1" stop-opacity="0"/>
<stop offset="0.2889" stop-color="#D0C8E3" stop-opacity="0.289"/>
<stop offset="0.5915" stop-color="#B1ABD2" stop-opacity="0.592"/>
<stop offset="0.8395" stop-color="#9D9AC4" stop-opacity="0.84"/>
<stop offset="1" stop-color="#9693C0"/>
</linearGradient>
<linearGradient id="paint15_linear_3065_6736" x1="58.9494" y1="80.9745" x2="58.8379" y2="77.1778" gradientUnits="userSpaceOnUse">
<stop stop-color="#F0E6F1" stop-opacity="0"/>
<stop offset="0.2889" stop-color="#D0C8E3" stop-opacity="0.289"/>
<stop offset="0.5915" stop-color="#B1ABD2" stop-opacity="0.592"/>
<stop offset="0.8395" stop-color="#9D9AC4" stop-opacity="0.84"/>
<stop offset="1" stop-color="#9693C0"/>
</linearGradient>
<linearGradient id="paint16_linear_3065_6736" x1="27.9816" y1="81.5327" x2="81.7743" y2="81.5327" gradientUnits="userSpaceOnUse">
<stop stop-color="#F0E6F1" stop-opacity="0"/>
<stop offset="0.2889" stop-color="#D0C8E3" stop-opacity="0.289"/>
<stop offset="0.5915" stop-color="#B1ABD2" stop-opacity="0.592"/>
<stop offset="0.8395" stop-color="#9D9AC4" stop-opacity="0.84"/>
<stop offset="1" stop-color="#9693C0"/>
</linearGradient>
<linearGradient id="paint17_linear_3065_6736" x1="54.6429" y1="57.5612" x2="65.8588" y2="81.9134" gradientUnits="userSpaceOnUse">
<stop stop-color="#FCD95F"/>
<stop offset="1" stop-color="#F5B138"/>
</linearGradient>
<linearGradient id="paint18_linear_3065_6736" x1="79.0184" y1="74.9755" x2="67.2769" y2="39.9396" gradientUnits="userSpaceOnUse">
<stop stop-color="#FCD95F" stop-opacity="0"/>
<stop offset="1" stop-color="#BD566E"/>
</linearGradient>
<linearGradient id="paint19_linear_3065_6736" x1="92.8632" y1="69.2533" x2="55.2037" y2="69.2533" gradientUnits="userSpaceOnUse">
<stop stop-color="#FCD95F" stop-opacity="0"/>
<stop offset="1" stop-color="#BD566E"/>
</linearGradient>
<linearGradient id="paint20_linear_3065_6736" x1="60.9349" y1="66.0013" x2="60.9349" y2="73.7579" gradientUnits="userSpaceOnUse">
<stop stop-color="#FAFAFB"/>
<stop offset="1" stop-color="#F0E6F1"/>
</linearGradient>
<linearGradient id="paint21_linear_3065_6736" x1="61.105" y1="74.2363" x2="61.5921" y2="61.665" gradientUnits="userSpaceOnUse">
<stop stop-color="#F0E6F1" stop-opacity="0"/>
<stop offset="0.2889" stop-color="#D0C8E3" stop-opacity="0.289"/>
<stop offset="0.5915" stop-color="#B1ABD2" stop-opacity="0.592"/>
<stop offset="0.8395" stop-color="#9D9AC4" stop-opacity="0.84"/>
<stop offset="1" stop-color="#9693C0"/>
</linearGradient>
<linearGradient id="paint22_linear_3065_6736" x1="60.9352" y1="71.5319" x2="60.9352" y2="66.1057" gradientUnits="userSpaceOnUse">
<stop stop-color="#F0E6F1" stop-opacity="0"/>
<stop offset="0.2889" stop-color="#D0C8E3" stop-opacity="0.289"/>
<stop offset="0.5915" stop-color="#B1ABD2" stop-opacity="0.592"/>
<stop offset="0.8395" stop-color="#9D9AC4" stop-opacity="0.84"/>
<stop offset="1" stop-color="#9693C0"/>
</linearGradient>
<linearGradient id="paint23_linear_3065_6736" x1="60.9891" y1="68.6952" x2="61.1006" y2="64.8987" gradientUnits="userSpaceOnUse">
<stop stop-color="#F0E6F1" stop-opacity="0"/>
<stop offset="0.2889" stop-color="#D0C8E3" stop-opacity="0.289"/>
<stop offset="0.5915" stop-color="#B1ABD2" stop-opacity="0.592"/>
<stop offset="0.8395" stop-color="#9D9AC4" stop-opacity="0.84"/>
<stop offset="1" stop-color="#9693C0"/>
</linearGradient>
<linearGradient id="paint24_linear_3065_6736" x1="91.9322" y1="69.2531" x2="37.9703" y2="69.2531" gradientUnits="userSpaceOnUse">
<stop stop-color="#F0E6F1" stop-opacity="0"/>
<stop offset="0.2889" stop-color="#D0C8E3" stop-opacity="0.289"/>
<stop offset="0.5915" stop-color="#B1ABD2" stop-opacity="0.592"/>
<stop offset="0.8395" stop-color="#9D9AC4" stop-opacity="0.84"/>
<stop offset="1" stop-color="#9693C0"/>
</linearGradient>
</defs>
</svg>
