<svg width="120" height="120" viewBox="0 0 120 120" fill="none" xmlns="http://www.w3.org/2000/svg">
<g filter="url(#filter0_d_3065_6695)">
<path d="M24.6226 76.6314C22.5626 76.5314 20.5625 80.1715 20.1625 84.8316C19.7625 89.4917 21.0825 93.4119 23.1426 93.6719L95.3245 99.992C97.4246 100.172 99.4446 96.5119 99.8646 91.8118C100.285 87.1117 98.9246 83.1516 96.8246 82.9516L24.6226 76.6314Z" fill="url(#paint0_linear_3065_6695)"/>
<path d="M96.8049 82.9511C98.9049 83.1311 100.265 87.0913 99.8449 91.8114C99.4249 96.5115 97.4049 100.192 95.3048 99.9916C93.2048 99.8116 91.8447 95.8515 92.2647 91.1314C92.6847 86.4312 94.7248 82.7511 96.8049 82.9511Z" fill="url(#paint1_linear_3065_6695)"/>
<path d="M96.805 82.9513C98.905 83.1313 100.265 87.0914 99.845 91.8115C99.805 92.3515 99.725 92.8715 99.645 93.3715C99.605 93.5115 99.565 93.6315 99.525 93.7716C99.465 93.9316 99.425 94.0716 99.365 94.2316C99.325 94.3316 99.285 94.4316 99.245 94.5116C99.225 94.5516 99.205 94.6116 99.185 94.6516C98.885 95.2716 98.525 95.7116 98.145 95.9316C97.985 96.0316 97.805 96.0716 97.645 96.0716C97.625 96.0716 97.585 96.0716 97.565 96.0716L92.4448 95.6316C92.2048 94.3116 92.1448 92.7915 92.2848 91.1715C92.2848 91.1315 92.2848 91.0915 92.3048 91.0515C92.7248 86.3714 94.7449 82.7513 96.805 82.9513Z" fill="url(#paint2_linear_3065_6695)"/>
<path d="M92.2848 91.0115L96.0049 91.3515C96.0049 91.3915 96.0049 91.4315 95.9849 91.4715C95.7649 93.9116 96.4849 95.9716 97.565 96.0516L92.4448 95.6116C92.2048 94.2916 92.1448 92.7715 92.2848 91.1515C92.2848 91.0915 92.2848 91.0515 92.2848 91.0115Z" fill="white"/>
<path d="M61.0436 96.9917C58.1435 91.8115 58.5436 85.1713 62.2637 79.9112C60.5236 79.7712 58.7636 79.6112 57.0235 79.4712C53.1234 84.6513 52.5434 91.2915 55.2435 96.5516C57.1835 96.6917 59.1236 96.8317 61.0436 96.9917Z" fill="url(#paint3_linear_3065_6695)"/>
<path d="M56.4835 96.6317C53.7234 91.3916 54.2834 84.7314 58.1435 79.5512C57.9635 79.5312 57.7635 79.5112 57.5835 79.5112C53.7034 84.6914 53.1434 91.3515 55.8635 96.5917C56.0835 96.6117 56.2835 96.6317 56.4835 96.6317Z" fill="url(#paint4_linear_3065_6695)"/>
<path d="M60.4434 96.9317C57.5633 91.7516 57.9834 85.0914 61.7235 79.8513C61.5435 79.8313 61.3435 79.8113 61.1634 79.8113C57.4233 85.0514 56.9633 91.7116 59.8234 96.8917C60.0234 96.9117 60.2234 96.9317 60.4434 96.9317Z" fill="url(#paint5_linear_3065_6695)"/>
<path d="M60.8841 88.8314L60.3641 89.6314C60.3041 89.7114 60.2641 89.8114 60.2441 89.9114L60.044 90.8714C59.984 91.1314 59.824 91.3314 59.584 91.4315L58.704 91.7515C58.604 91.7915 58.524 91.8315 58.464 91.9115L57.784 92.5715C57.604 92.7515 57.344 92.8115 57.084 92.7315L56.1839 92.4515C56.0839 92.4315 56.0039 92.4115 55.9039 92.4315L54.9839 92.5515C54.7239 92.5915 54.4839 92.4715 54.3239 92.2715L53.7639 91.5114C53.7039 91.4314 53.6239 91.3714 53.5439 91.3114L52.7439 90.8314C52.5238 90.7114 52.3838 90.4714 52.3838 90.1914L52.3638 89.2114C52.3638 89.1114 52.3438 89.0114 52.3038 88.9314L51.9238 88.0514C51.8238 87.8113 51.8438 87.5313 51.9838 87.3113L52.5038 86.5113C52.5638 86.4313 52.6038 86.3313 52.6238 86.2313L52.8239 85.2713C52.8839 85.0113 53.0439 84.8113 53.2839 84.7113L54.1639 84.3913C54.2639 84.3513 54.3439 84.3113 54.4039 84.2313L55.0839 83.5712C55.2639 83.3912 55.5239 83.3312 55.7839 83.4112L56.684 83.6912C56.784 83.7112 56.864 83.7312 56.964 83.7112L57.884 83.5912C58.144 83.5512 58.384 83.6712 58.544 83.8712L59.104 84.6313C59.164 84.7113 59.244 84.7713 59.324 84.8313L60.124 85.3113C60.3441 85.4313 60.4841 85.6713 60.4841 85.9513L60.5041 86.9313C60.5041 87.0313 60.5241 87.1313 60.5641 87.2113L60.9441 88.0914C61.0441 88.3314 61.0241 88.6114 60.8841 88.8314Z" fill="url(#paint6_radial_3065_6695)"/>
<path d="M52.4041 87.3718L52.8842 86.6518C52.9242 86.5718 52.9642 86.4918 52.9842 86.4117L53.1642 85.5517C53.2042 85.3117 53.3642 85.1317 53.5842 85.0517L54.3842 84.7517C54.4642 84.7117 54.5442 84.6717 54.6042 84.6117L55.2242 84.0117C55.3842 83.8517 55.6242 83.7917 55.8442 83.8517L56.6443 84.0917C56.7243 84.1117 56.8243 84.1317 56.9043 84.1117L57.7443 84.0117C57.9643 83.9917 58.2043 84.0917 58.3243 84.2717L58.8243 84.9717C58.8843 85.0517 58.9443 85.1117 59.0243 85.1517L59.7443 85.5717C59.9443 85.6917 60.0643 85.9117 60.0643 86.1517L60.0844 87.0318C60.0844 87.1318 60.1043 87.2118 60.1444 87.2918L60.4844 88.0918C60.5844 88.3118 60.5644 88.5518 60.4244 88.7518L59.9443 89.4718C59.9043 89.5518 59.8643 89.6318 59.8443 89.7118L59.6643 90.5719C59.6243 90.8119 59.4643 90.9919 59.2443 91.0719L58.4443 91.3719C58.3643 91.4119 58.2843 91.4519 58.2243 91.5119L57.6043 92.1119C57.4443 92.2719 57.2043 92.3319 56.9843 92.2719L56.1842 92.0319C56.1242 91.9919 56.0442 91.9919 55.9442 92.0119L55.1042 92.1119C54.8842 92.1319 54.6442 92.0319 54.5242 91.8519L54.0242 91.1519C53.9642 91.0719 53.9042 91.0119 53.8242 90.9719L53.1042 90.5519C52.9042 90.4319 52.7842 90.2119 52.7842 89.9718L52.7642 89.0918C52.7642 88.9918 52.7442 88.9118 52.7042 88.8318L52.3641 88.0318C52.2441 87.8318 52.2841 87.5718 52.4041 87.3718Z" fill="url(#paint7_radial_3065_6695)"/>
<path d="M56.7441 84.3717C58.7042 84.5517 60.1442 86.3317 59.9642 88.3718C59.7842 90.4118 58.0442 91.9319 56.1041 91.7519C54.1441 91.5719 52.704 89.7918 52.884 87.7518C53.064 85.7117 54.7841 84.1916 56.7441 84.3717Z" fill="url(#paint8_linear_3065_6695)"/>
<path d="M92.4245 62.8111C91.9045 62.8111 91.5045 62.3911 91.5045 61.8911V39.4905H93.3446V61.8911C93.3446 62.3911 92.9446 62.8111 92.4245 62.8111Z" fill="#C24245"/>
<path d="M94.8648 73.9312C94.8648 75.2512 90.0847 75.2512 90.0847 73.9312C90.0847 72.6111 91.1447 63.4109 92.4647 63.4109C93.8047 63.4109 94.8648 72.6111 94.8648 73.9312Z" fill="url(#paint9_linear_3065_6695)"/>
<path d="M94.8646 73.9312C94.8646 74.3712 94.3246 74.6712 93.6246 74.8112C92.9246 74.9512 92.0446 74.9512 91.3445 74.8112C91.2445 74.6712 91.1646 74.4912 91.1646 74.2712C91.1646 72.9111 91.7446 63.5709 92.4646 63.4109H92.4846H92.5046C93.8246 63.4909 94.8646 72.6111 94.8646 73.9312Z" fill="url(#paint10_linear_3065_6695)"/>
<path d="M94.0848 73.9312C94.0848 74.5512 93.3648 74.8912 92.6047 74.9112C92.5247 74.9112 92.4647 74.9112 92.3847 74.9112C91.2247 74.8912 90.1047 74.5712 90.1047 73.9312C90.1047 72.6112 91.1647 63.5109 92.4647 63.4309H92.4847H92.5047C93.3848 63.5509 94.0848 72.6112 94.0848 73.9312Z" fill="url(#paint11_linear_3065_6695)"/>
<path d="M92.4847 65.1308C93.7661 65.1308 94.8048 64.0921 94.8048 62.8108C94.8048 61.5294 93.7661 60.4907 92.4847 60.4907C91.2034 60.4907 90.1647 61.5294 90.1647 62.8108C90.1647 64.0921 91.2034 65.1308 92.4847 65.1308Z" fill="#A0C151"/>
<path d="M93.5247 60.7307C93.6847 61.0507 93.7647 61.3907 93.7647 61.7707C93.7647 63.0508 92.7247 64.0908 91.4446 64.0908C91.0646 64.0908 90.7246 64.0108 90.4046 63.8508C90.7846 64.6108 91.5646 65.1308 92.4847 65.1308C93.7647 65.1308 94.8047 64.0908 94.8047 62.8108C94.8047 61.8907 94.2847 61.1107 93.5247 60.7307Z" fill="url(#paint12_linear_3065_6695)"/>
<path d="M100.004 40.6306C100.004 41.0906 99.8645 41.5507 99.5645 41.6907L63.2635 59.1911C61.0834 60.2312 58.8034 60.2512 56.6233 59.2111L20.4423 41.9907C20.1423 41.8507 20.0023 41.3906 20.0023 40.9306V39.3506C20.0023 38.8906 20.1423 38.4306 20.4423 38.2906L56.7433 20.7901C58.9234 19.7501 61.2034 19.7301 63.3835 20.7701L99.5645 37.9906C99.8645 38.1306 100.004 38.5906 100.004 39.0506V40.6306Z" fill="url(#paint13_linear_3065_6695)"/>
<path d="M56.6235 59.231L20.4425 41.9905C19.8425 41.7105 19.8625 40.2305 20.4425 39.9305L56.7435 22.43C58.9236 21.39 61.2036 21.37 63.3837 22.41L99.5647 39.6304C100.165 39.9105 100.145 41.3905 99.5647 41.6905L63.2637 59.191C61.0836 60.251 58.8036 60.251 56.6235 59.231Z" fill="url(#paint14_linear_3065_6695)"/>
<path d="M56.9835 55.251L24.6426 39.8306C24.1226 39.5706 24.1226 38.2505 24.6426 37.9905L57.0835 22.3301C59.0236 21.3901 61.0836 21.3901 63.0237 22.3101L95.3845 37.7105C95.9045 37.9705 95.9045 39.2906 95.3845 39.5506L62.9437 55.211C60.9836 56.151 58.9236 56.171 56.9835 55.251Z" fill="url(#paint15_linear_3065_6695)"/>
<path d="M81.004 45.1308L80.944 66.7113C80.944 69.0514 71.4438 70.9315 59.7035 70.9315C47.9631 70.9315 38.4629 69.0514 38.4629 66.7313L38.5229 45.1508C38.5229 42.5707 40.1029 40.2306 42.523 39.2906C48.0631 37.1105 53.9233 36.0305 59.7635 36.0305C65.6036 36.0305 71.4638 37.1105 77.0039 39.2906C78.204 39.7706 79.204 40.5706 79.904 41.6107C80.604 42.6107 81.004 43.8507 81.004 45.1308Z" fill="url(#paint16_linear_3065_6695)"/>
<path d="M80.9236 66.7316L80.9836 45.151C80.9836 43.851 80.5836 42.6309 79.8836 41.6109C79.1836 40.5909 78.1836 39.7709 76.9835 39.2908C71.4434 37.1108 65.5832 36.0308 59.7431 36.0308C55.403 36.0308 51.0628 36.6308 46.8627 37.8308C44.7227 39.0708 43.3826 41.3709 43.3826 43.891L43.3226 66.2916C43.3226 68.6316 51.9429 70.5717 63.2032 70.9317C73.2634 70.5517 80.9236 68.8116 80.9236 66.7316Z" fill="url(#paint17_linear_3065_6695)"/>
<path d="M80.9238 66.7316C80.9238 69.0717 71.4235 70.9517 59.6832 70.9517C47.9429 70.9517 38.4626 69.0517 38.4626 66.7316C38.4626 64.3915 47.9629 62.5115 59.7032 62.5115C71.4435 62.5115 80.9238 64.3915 80.9238 66.7316Z" fill="url(#paint18_linear_3065_6695)"/>
<path d="M80.1237 67.1514C80.1237 69.2515 70.9834 70.9515 59.7031 70.9515C48.4228 70.9515 39.2826 69.2515 39.2826 67.1514C39.2826 65.0514 48.4228 63.3513 59.7031 63.3513C70.9834 63.3513 80.1237 65.0314 80.1237 67.1514Z" fill="url(#paint19_linear_3065_6695)"/>
</g>
<defs>
<filter id="filter0_d_3065_6695" x="0" y="0" width="124" height="124" filterUnits="userSpaceOnUse" color-interpolation-filters="sRGB">
<feFlood flood-opacity="0" result="BackgroundImageFix"/>
<feColorMatrix in="SourceAlpha" type="matrix" values="0 0 0 0 0 0 0 0 0 0 0 0 0 0 0 0 0 0 127 0" result="hardAlpha"/>
<feOffset dx="2" dy="2"/>
<feGaussianBlur stdDeviation="1"/>
<feColorMatrix type="matrix" values="0 0 0 0 1 0 0 0 0 0.282353 0 0 0 0 0.258824 0 0 0 0.24 0"/>
<feBlend mode="normal" in2="BackgroundImageFix" result="effect1_dropShadow_3065_6695"/>
<feBlend mode="normal" in="SourceGraphic" in2="effect1_dropShadow_3065_6695" result="shape"/>
</filter>
<linearGradient id="paint0_linear_3065_6695" x1="59.5966" y1="92.8036" x2="60.6432" y2="80.841" gradientUnits="userSpaceOnUse">
<stop offset="0.00117567" stop-color="#F6F8F9"/>
<stop offset="0.75" stop-color="#EEF2F4"/>
<stop offset="1" stop-color="#D8DFE3"/>
</linearGradient>
<linearGradient id="paint1_linear_3065_6695" x1="102.865" y1="92.0642" x2="89.7029" y2="90.9126" gradientUnits="userSpaceOnUse">
<stop stop-color="#E3E9EC" stop-opacity="0"/>
<stop offset="0.2889" stop-color="#E3E9EC" stop-opacity="0.29"/>
<stop offset="0.5915" stop-color="#DAE0E3" stop-opacity="0.59"/>
<stop offset="0.8395" stop-color="#DAE0E3" stop-opacity="0.84"/>
<stop offset="1" stop-color="#D1D7DA"/>
</linearGradient>
<linearGradient id="paint2_linear_3065_6695" x1="102.196" y1="85.1062" x2="88.8878" y2="96.2727" gradientUnits="userSpaceOnUse">
<stop stop-color="#E3E9EC" stop-opacity="0"/>
<stop offset="0.2889" stop-color="#E3E9EC" stop-opacity="0.29"/>
<stop offset="0.5915" stop-color="#DAE0E3" stop-opacity="0.59"/>
<stop offset="0.8395" stop-color="#DAE0E3" stop-opacity="0.84"/>
<stop offset="1" stop-color="#D1D7DA"/>
</linearGradient>
<linearGradient id="paint3_linear_3065_6695" x1="55.2275" y1="92.3729" x2="66.1588" y2="80.4659" gradientUnits="userSpaceOnUse">
<stop stop-color="#EE895F"/>
<stop offset="1" stop-color="#E24029"/>
</linearGradient>
<linearGradient id="paint4_linear_3065_6695" x1="53.9691" y1="91.4095" x2="63.0281" y2="81.5419" gradientUnits="userSpaceOnUse">
<stop stop-color="#FAFAFB"/>
<stop offset="1" stop-color="#F0E6F1"/>
</linearGradient>
<linearGradient id="paint5_linear_3065_6695" x1="57.7803" y1="91.6506" x2="66.6736" y2="81.9636" gradientUnits="userSpaceOnUse">
<stop stop-color="#FAFAFB"/>
<stop offset="1" stop-color="#F0E6F1"/>
</linearGradient>
<radialGradient id="paint6_radial_3065_6695" cx="0" cy="0" r="1" gradientUnits="userSpaceOnUse" gradientTransform="translate(55.5524 85.3064) rotate(4.9999) scale(7.47451 7.79485)">
<stop stop-color="#FCD95F"/>
<stop offset="0.509" stop-color="#FDD85E"/>
<stop offset="0.6924" stop-color="#FED359"/>
<stop offset="0.823" stop-color="#FACB51"/>
<stop offset="0.9279" stop-color="#F8BE44"/>
<stop offset="1" stop-color="#F5B138"/>
</radialGradient>
<radialGradient id="paint7_radial_3065_6695" cx="0" cy="0" r="1" gradientUnits="userSpaceOnUse" gradientTransform="translate(57.5502 90.5761) rotate(-175) scale(6.74614 7.03526)">
<stop stop-color="#FCD95F"/>
<stop offset="0.509" stop-color="#FDD85E"/>
<stop offset="0.6924" stop-color="#FED359"/>
<stop offset="0.823" stop-color="#FACB51"/>
<stop offset="0.9279" stop-color="#F8BE44"/>
<stop offset="1" stop-color="#F5B138"/>
</radialGradient>
<linearGradient id="paint8_linear_3065_6695" x1="54.5314" y1="85.8046" x2="60.1027" y2="92.4446" gradientUnits="userSpaceOnUse">
<stop stop-color="#FCD95F"/>
<stop offset="1" stop-color="#F5B138"/>
</linearGradient>
<linearGradient id="paint9_linear_3065_6695" x1="91.2221" y1="69.2372" x2="97.8127" y2="69.0856" gradientUnits="userSpaceOnUse">
<stop offset="0.00117567" stop-color="#DD5D5C"/>
<stop offset="1" stop-color="#C24045"/>
</linearGradient>
<linearGradient id="paint10_linear_3065_6695" x1="93.7456" y1="68.8834" x2="89.3059" y2="70.9222" gradientUnits="userSpaceOnUse">
<stop stop-color="#C24045" stop-opacity="0"/>
<stop offset="0.2503" stop-color="#C24045" stop-opacity="0.25"/>
<stop offset="0.7194" stop-color="#E76A66" stop-opacity="0.72"/>
<stop offset="1" stop-color="#E76A66"/>
</linearGradient>
<linearGradient id="paint11_linear_3065_6695" x1="91.1115" y1="69.8306" x2="98.852" y2="66.8226" gradientUnits="userSpaceOnUse">
<stop stop-color="#C24045" stop-opacity="0"/>
<stop offset="1" stop-color="#C24045"/>
</linearGradient>
<linearGradient id="paint12_linear_3065_6695" x1="92.5717" y1="63.7324" x2="95.7666" y2="57.7901" gradientUnits="userSpaceOnUse">
<stop stop-color="#3CAF88" stop-opacity="0"/>
<stop offset="1" stop-color="#009851"/>
</linearGradient>
<linearGradient id="paint13_linear_3065_6695" x1="60.0077" y1="50.3736" x2="60.0077" y2="22.8438" gradientUnits="userSpaceOnUse">
<stop stop-color="#56606D"/>
<stop offset="1" stop-color="#333D44"/>
</linearGradient>
<linearGradient id="paint14_linear_3065_6695" x1="50.8501" y1="53.2421" x2="70.2397" y2="26.8563" gradientUnits="userSpaceOnUse">
<stop stop-color="#56606D"/>
<stop offset="1" stop-color="#333D44"/>
</linearGradient>
<linearGradient id="paint15_linear_3065_6695" x1="59.9067" y1="39.8217" x2="52.9748" y2="110.16" gradientUnits="userSpaceOnUse">
<stop stop-color="#C8CFDF" stop-opacity="0"/>
<stop offset="0.5577" stop-color="#DCE1EA" stop-opacity="0.558"/>
<stop offset="1" stop-color="#EEF1F6"/>
</linearGradient>
<linearGradient id="paint16_linear_3065_6695" x1="45.65" y1="46.8383" x2="67.9867" y2="58.9505" gradientUnits="userSpaceOnUse">
<stop stop-color="#56606D"/>
<stop offset="1" stop-color="#333D44"/>
</linearGradient>
<linearGradient id="paint17_linear_3065_6695" x1="51.5786" y1="47.6049" x2="18.772" y2="26.6389" gradientUnits="userSpaceOnUse">
<stop stop-color="#C8CFDF" stop-opacity="0"/>
<stop offset="0.5577" stop-color="#DCE1EA" stop-opacity="0.558"/>
<stop offset="1" stop-color="#EEF1F6"/>
</linearGradient>
<linearGradient id="paint18_linear_3065_6695" x1="64.8858" y1="54.7101" x2="52.7117" y2="82.9807" gradientUnits="userSpaceOnUse">
<stop stop-color="#56606D"/>
<stop offset="1" stop-color="#333D44"/>
</linearGradient>
<linearGradient id="paint19_linear_3065_6695" x1="59.6952" y1="72.1644" x2="59.6952" y2="64.4538" gradientUnits="userSpaceOnUse">
<stop stop-color="#56606D"/>
<stop offset="1" stop-color="#333D44"/>
</linearGradient>
</defs>
</svg>
