<svg width="169" height="41" viewBox="0 0 169 41" fill="none" xmlns="http://www.w3.org/2000/svg">
<path fill-rule="evenodd" clip-rule="evenodd" d="M23.9712 28.3738V28.3935C23.9712 28.6575 23.7425 28.8742 23.4638 28.8742H23.2746C23.2184 29.1776 22.8254 29.5283 22.3491 29.5283C21.8729 29.5283 21.4799 29.1776 21.4237 28.8742H20.9953C20.9392 29.1776 20.5462 29.5283 20.0699 29.5283C19.5937 29.5283 19.2007 29.1776 19.1445 28.8742H18.9553C18.6766 28.8742 18.4479 28.6575 18.4479 28.3935V28.3738C18.4479 28.1098 18.6766 27.8931 18.9553 27.8931H23.4617C23.7445 27.8931 23.9712 28.1098 23.9712 28.3738ZM22.3138 30.4286H20.1074C19.8287 30.4286 19.6 30.6453 19.6 30.9093V30.929C19.6 31.193 19.8287 31.4098 20.1074 31.4098H20.2862C20.3424 31.7132 20.7354 32.0638 21.2116 32.0638C21.6878 32.0638 22.0809 31.7132 22.137 31.4098H22.3159C22.5945 31.4098 22.8233 31.193 22.8233 30.929V30.9093C22.8212 30.6453 22.5925 30.4286 22.3138 30.4286ZM16.6199 15.166C15.6488 15.166 14.8627 15.9107 14.8627 16.8307C14.8627 17.7508 15.6488 18.4955 16.6199 18.4955C17.5911 18.4955 18.3772 17.7508 18.3772 16.8307C18.3772 15.9107 17.5911 15.166 16.6199 15.166ZM33.3106 7.40561V16.8051C33.3106 16.8445 33.3064 16.882 33.3002 16.9194C33.244 18.9979 32.1419 20.8341 30.4761 21.9728C30.526 22.0024 30.5718 22.0398 30.6113 22.0851C31.3183 22.9185 32.7117 24.8472 32.7117 27.0932C32.7117 29.282 31.7322 31.1694 31.1977 32.0363C31.0293 32.3101 30.6342 32.3613 30.395 32.1407C30.3139 32.0658 30.2266 31.9811 30.133 31.8885C28.6482 33.9571 26.2899 35.4781 23.5241 36.0297V39.2667C23.5241 39.6922 23.1602 40.035 22.7131 40.035C22.2639 40.035 21.902 39.6902 21.902 39.2667V36.2366C21.6733 36.2504 21.4445 36.2563 21.2116 36.2563C20.9808 36.2563 20.75 36.2484 20.5212 36.2366V39.2667C20.5212 39.6922 20.1573 40.035 19.7102 40.035C19.261 40.035 18.8991 39.6902 18.8991 39.2667V36.0297C16.1333 35.4781 13.7751 33.9552 12.2903 31.8885C12.1967 31.9811 12.1073 32.0658 12.0282 32.1407C11.7891 32.3633 11.394 32.3101 11.2255 32.0363C10.6911 31.1694 9.71159 29.282 9.71159 27.0932C9.71159 24.8472 11.1049 22.9185 11.812 22.0851C11.8515 22.0378 11.8972 22.0004 11.9471 21.9728C10.2585 20.8163 9.14802 18.9467 9.12099 16.8327C9.11683 16.7992 9.11267 16.7638 9.11267 16.7283V7.40561C9.11267 7.10024 9.29983 6.82245 9.59513 6.69439C9.88835 6.56633 10.2336 6.61361 10.4789 6.8126L13.6482 9.39348C15.6051 7.86071 18.3148 6.99385 21.2116 6.99385C24.1085 6.99385 26.8181 7.86071 28.775 9.39348L31.9443 6.8126C32.1897 6.61361 32.5349 6.56633 32.8281 6.69439C33.1213 6.82245 33.3106 7.10024 33.3106 7.40561ZM16.5991 9.62595C17.2251 9.96087 18.9241 10.7371 21.2095 10.7371C23.4929 10.7371 25.1961 9.9589 25.822 9.62595C26.134 9.45849 26.2442 9.08416 26.0695 8.78864C25.8927 8.49312 25.4976 8.38871 25.1857 8.5542C24.6492 8.84184 23.1872 9.50774 21.2095 9.50774C19.2339 9.50774 17.7741 8.84184 17.2376 8.5542C16.9256 8.38674 16.5284 8.49115 16.3537 8.78667C16.177 9.08416 16.2872 9.46046 16.5991 9.62595ZM31.6739 16.9647C31.6635 16.9135 31.6573 16.8603 31.6573 16.8051V16.3008C31.4161 13.8145 29.2013 11.8601 26.5166 11.8601C24.5826 11.8601 22.8254 12.8708 21.9332 14.4981C21.9332 14.5001 21.9312 14.5001 21.9312 14.502C21.9208 14.5198 21.9104 14.5355 21.9 14.5513C21.8958 14.5572 21.8937 14.5631 21.8896 14.5671C21.8792 14.5828 21.8667 14.5986 21.8542 14.6124C21.85 14.6183 21.8459 14.6222 21.8417 14.6281C21.8313 14.6419 21.8189 14.6537 21.8064 14.6656C21.8001 14.6715 21.7939 14.6794 21.7877 14.6853C21.7773 14.6951 21.7669 14.703 21.7565 14.7109C21.7461 14.7188 21.7378 14.7286 21.7274 14.7365C21.719 14.7424 21.7107 14.7483 21.7024 14.7542C21.6899 14.7641 21.6774 14.7719 21.6629 14.7818C21.6546 14.7877 21.6463 14.7916 21.6379 14.7956C21.6234 14.8035 21.6088 14.8133 21.5943 14.8192C21.5922 14.8192 21.5901 14.8212 21.588 14.8232C21.5797 14.8271 21.5714 14.8311 21.5631 14.835C21.5485 14.8409 21.536 14.8468 21.5215 14.8527C21.509 14.8586 21.4944 14.8626 21.482 14.8665C21.4695 14.8705 21.4591 14.8744 21.4466 14.8783C21.4321 14.8823 21.4175 14.8862 21.4029 14.8902C21.3925 14.8921 21.3821 14.8961 21.3717 14.898C21.3572 14.9 21.3406 14.9039 21.326 14.9059C21.3156 14.9079 21.3031 14.9099 21.2927 14.9099C21.2782 14.9118 21.2657 14.9118 21.2511 14.9118C21.2387 14.9118 21.2262 14.9138 21.2137 14.9138C21.2012 14.9138 21.1887 14.9138 21.1763 14.9118C21.1617 14.9118 21.1472 14.9099 21.1326 14.9099C21.1222 14.9079 21.1118 14.9079 21.1014 14.9059C21.0848 14.9039 21.0702 14.902 21.0536 14.898C21.0432 14.8961 21.0349 14.8941 21.0245 14.8921C21.0078 14.8882 20.9933 14.8842 20.9766 14.8803C20.9662 14.8783 20.9558 14.8744 20.9454 14.8705C20.9309 14.8665 20.9163 14.8606 20.9018 14.8547C20.8893 14.8508 20.8789 14.8448 20.8685 14.8389C20.8581 14.835 20.8477 14.8311 20.8373 14.8251C20.8352 14.8232 20.8331 14.8232 20.8311 14.8212C20.8186 14.8153 20.8082 14.8094 20.7957 14.8015C20.7832 14.7956 20.7728 14.7877 20.7604 14.7818C20.752 14.7759 20.7416 14.77 20.7333 14.7641C20.7208 14.7562 20.7084 14.7463 20.6959 14.7365C20.6917 14.7325 20.6855 14.7286 20.6813 14.7247C20.6668 14.7128 20.6501 14.6991 20.6377 14.6853C20.6356 14.6833 20.6335 14.6813 20.6314 14.6794C20.6148 14.6636 20.5981 14.6459 20.5836 14.6281C20.5815 14.6262 20.5815 14.6242 20.5794 14.6222C20.5649 14.6045 20.5503 14.5848 20.5358 14.5671C20.5337 14.5631 20.5316 14.5611 20.5295 14.5572C20.517 14.5395 20.5046 14.5198 20.4942 14.502C20.4942 14.5001 20.4921 14.5001 20.4921 14.4981C19.5979 12.8708 17.8406 11.8621 15.9087 11.8621C13.2219 11.8621 11.0092 13.8164 10.768 16.3027V16.7283C10.768 16.7854 10.7618 16.8406 10.7493 16.8938C10.8283 19.5279 13.1117 21.6458 15.9108 21.6458C16.8216 21.6458 17.7159 21.4192 18.4978 20.9897C18.8846 20.7769 19.3816 20.901 19.6062 21.2695C19.8308 21.6359 19.6998 22.1068 19.3109 22.3195C18.2815 22.885 17.1065 23.1825 15.9108 23.1825C15.0623 23.1825 14.2492 23.0327 13.5006 22.7628C13.4423 22.8495 13.3862 22.9382 13.33 23.0288C13.9976 24.0257 14.7171 25.4777 14.7171 27.0912C14.7171 28.4467 14.0787 29.6859 13.3758 30.6375C14.9084 33.0686 17.8469 34.7176 21.2137 34.7176C24.5805 34.7176 27.519 33.0686 29.0516 30.6375C28.3487 29.6839 27.7103 28.4447 27.7103 27.0912C27.7103 25.4757 28.4298 24.0257 29.0974 23.0288C29.0433 22.9401 28.9871 22.8515 28.9268 22.7628C28.1761 23.0327 27.3651 23.1844 26.5166 23.1844C25.3209 23.1844 24.1459 22.885 23.1165 22.3215C22.7297 22.1087 22.5966 21.6379 22.8212 21.2714C23.0458 20.905 23.5428 20.7789 23.9296 20.9917C24.7115 21.4212 25.6058 21.6477 26.5166 21.6477C29.2887 21.6458 31.5575 19.5653 31.6739 16.9647ZM25.8033 15.166C24.8322 15.166 24.0461 15.9107 24.0461 16.8307C24.0461 17.7508 24.8322 18.4955 25.8033 18.4955C26.7745 18.4955 27.5606 17.7508 27.5606 16.8307C27.5606 15.9107 26.7724 15.166 25.8033 15.166ZM17.4164 25.8481C17.4164 26.118 17.6493 26.3386 17.9342 26.3386H18.0091C18.0652 26.642 18.4583 26.9927 18.9345 26.9927C19.4107 26.9927 19.8038 26.642 19.8599 26.3386H20.2883C20.3444 26.642 20.7375 26.9927 21.2137 26.9927C21.6899 26.9927 22.083 26.642 22.1391 26.3386H22.5675C22.6236 26.642 23.0167 26.9927 23.4929 26.9927C23.9691 26.9927 24.3622 26.642 24.4183 26.3386H24.4932C24.7781 26.3386 25.011 26.118 25.011 25.8481C25.011 25.5781 24.7781 25.3575 24.4932 25.3575H17.9342C17.6493 25.3575 17.4164 25.5781 17.4164 25.8481ZM22.5821 19.6953H19.8412C19.654 19.6953 19.5355 19.8884 19.6291 20.0421L20.9995 22.292C21.0931 22.4456 21.3281 22.4456 21.4217 22.292L22.7921 20.0421C22.8878 19.8884 22.7692 19.6953 22.5821 19.6953Z" fill="#FF7A33"/>
<path fill-rule="evenodd" clip-rule="evenodd" d="M29.2803 4.01908C29.534 3.92057 29.5382 3.58171 29.2887 3.47729L21.9249 0.388117C21.3218 0.133969 20.6356 0.126088 20.0242 0.364475L13.1408 3.05568C12.8871 3.15419 12.8829 3.49305 13.1325 3.59747L16.7052 5.09674V8.74544C16.7052 8.88926 16.7863 9.02126 16.9173 9.09021C17.4705 9.38573 19.0613 10.1226 21.2074 10.1226C23.3536 10.1226 24.9486 9.38573 25.5018 9.09021C25.6328 9.01929 25.7139 8.88729 25.7139 8.74544V5.41197L28.5962 4.28505V6.86199L28.2468 7.63428C28.2094 7.71703 28.2738 7.80765 28.3674 7.80765H29.2284C29.3219 7.80765 29.3864 7.71703 29.349 7.63428L28.9996 6.86199V4.12744L29.2803 4.01908Z" fill="#0082CD"/>
<path d="M43.1287 29.6796H52.6471V32.275H40.125V15.1133H52.4779V17.7087H43.1287V22.2025H51.781V24.655H43.1287V29.6796ZM63.8481 15.1133H66.5893V32.275H63.9939V30.5924H63.9444C63.5769 31.3127 63.0403 31.8288 62.3346 32.1438C61.6289 32.4529 60.8824 32.6104 60.0979 32.6104C59.121 32.6104 58.2666 32.4383 57.5375 32.0942C56.8085 31.7501 56.2048 31.2806 55.7237 30.6886C55.2425 30.0966 54.8809 29.3938 54.6417 28.586C54.4026 27.7783 54.2801 26.9092 54.2801 25.979C54.2801 24.8592 54.4318 23.8881 54.7351 23.0715C55.0383 22.255 55.4437 21.5814 55.9482 21.0535C56.4527 20.5257 57.0301 20.1349 57.6775 19.8871C58.3278 19.6392 58.9869 19.5138 59.6605 19.5138C60.0454 19.5138 60.4391 19.5488 60.8386 19.6217C61.2381 19.6946 61.6231 19.8112 61.9934 19.9687C62.3609 20.1291 62.7021 20.3332 63.0141 20.5811C63.3261 20.829 63.5857 21.1206 63.7956 21.4589H63.8423V15.1133H63.8481ZM63.9444 26.049C63.9444 24.6696 63.6353 23.5965 63.0199 22.8295C62.4017 22.0596 61.5648 21.6747 60.5091 21.6747C59.8675 21.6747 59.328 21.8059 58.8877 22.0713C58.4474 22.3367 58.0858 22.6808 57.8058 23.1036C57.5259 23.5294 57.3246 24.0076 57.2051 24.5471C57.0855 25.0837 57.0243 25.6319 57.0243 26.1948C57.0243 26.7226 57.0913 27.2446 57.2284 27.7578C57.3655 28.2711 57.5725 28.7289 57.8525 29.1284C58.1324 29.528 58.4882 29.8487 58.9227 30.0908C59.3543 30.3299 59.8675 30.4524 60.4595 30.4524C61.069 30.4524 61.5939 30.3241 62.0343 30.0675C62.4746 29.8108 62.8362 29.4755 63.1162 29.0585C63.3961 28.6414 63.6061 28.1719 63.7402 27.6529C63.8744 27.1279 63.9444 26.5943 63.9444 26.049ZM77.7379 27.058C77.7379 27.5391 77.6854 27.9882 77.5804 28.4052C77.4754 28.8222 77.3034 29.178 77.0643 29.4755C76.8251 29.7729 76.5131 30.0091 76.1282 30.1841C75.7432 30.362 75.2621 30.4495 74.6847 30.4495C73.9323 30.4495 73.3461 30.2249 72.9291 29.7758C72.5121 29.3267 72.3051 28.5598 72.3051 27.4691V19.8492H69.5638V27.7316C69.5638 29.3647 69.9284 30.5865 70.6574 31.3972C71.3865 32.2079 72.5675 32.6104 74.2035 32.6104C74.8917 32.6104 75.5683 32.4208 76.2332 32.0446C76.898 31.6684 77.3996 31.1669 77.735 30.5428H77.7846V32.2721H80.4762V19.8492H77.735V27.058H77.7379ZM98.0958 15.1133H94.3951L86.7518 22.9257V15.1133H83.7481V32.275H86.7518V26.5068L89.2043 24.0805L94.8296 32.2779H98.5798L91.2457 21.9634L98.0958 15.1133ZM111.376 23.4302C111.656 24.2322 111.796 25.1041 111.796 26.049C111.796 27.0113 111.656 27.892 111.376 28.6939C111.096 29.4959 110.688 30.1841 110.151 30.7615C109.615 31.3389 108.959 31.7909 108.18 32.1204C107.401 32.45 106.518 32.6133 105.523 32.6133C104.529 32.6133 103.645 32.45 102.867 32.1204C102.088 31.7909 101.432 31.3389 100.895 30.7615C100.359 30.1841 99.9505 29.4959 99.6705 28.6939C99.3905 27.892 99.2506 27.0113 99.2506 26.049C99.2506 25.1041 99.3905 24.2293 99.6705 23.4302C99.9505 22.6283 100.359 21.9401 100.895 21.3627C101.432 20.7853 102.088 20.3332 102.867 20.0037C103.642 19.6742 104.529 19.5109 105.523 19.5109C106.518 19.5109 107.401 19.6742 108.18 20.0037C108.956 20.3332 109.615 20.7853 110.151 21.3627C110.685 21.9401 111.093 22.6283 111.376 23.4302ZM109.055 26.049C109.055 25.5211 108.988 24.9904 108.851 24.4626C108.714 23.9347 108.501 23.4652 108.212 23.057C107.923 22.6487 107.556 22.3162 107.107 22.0596C106.658 21.803 106.13 21.6747 105.52 21.6747C104.911 21.6747 104.383 21.803 103.934 22.0596C103.485 22.3162 103.117 22.6487 102.829 23.057C102.54 23.4652 102.327 23.9347 102.193 24.4626C102.056 24.9904 101.989 25.5211 101.989 26.049C101.989 26.5943 102.056 27.1279 102.193 27.647C102.33 28.169 102.543 28.6356 102.829 29.0526C103.115 29.4696 103.485 29.805 103.934 30.0616C104.383 30.3182 104.911 30.4466 105.52 30.4466C106.13 30.4466 106.658 30.3182 107.107 30.0616C107.556 29.805 107.923 29.4696 108.212 29.0526C108.501 28.6356 108.714 28.1661 108.851 27.647C108.988 27.1279 109.055 26.5943 109.055 26.049ZM120.591 19.5109C119.775 19.5109 119.028 19.7063 118.357 20.1C117.687 20.4936 117.138 21.0331 116.724 21.7213L116.678 21.6747V19.8492H114.082V32.275H116.823V24.9437C116.823 24.4946 116.896 24.0718 117.039 23.6694C117.185 23.2698 117.383 22.9199 117.64 22.6254C117.897 22.3279 118.209 22.0975 118.576 21.9284C118.944 21.7593 119.361 21.6747 119.827 21.6747C120.644 21.6747 121.244 21.8963 121.629 22.3367C122.014 22.777 122.221 23.4856 122.253 24.4626V32.275H124.995V23.7423C124.995 22.3337 124.601 21.2752 123.816 20.5695C123.029 19.8637 121.953 19.5109 120.591 19.5109ZM138.966 24.066C139.199 24.9408 139.258 25.8419 139.147 26.7693H130.013C130.013 27.2504 130.08 27.7141 130.217 28.1632C130.355 28.6123 130.559 29.0031 130.83 29.3413C131.101 29.6767 131.448 29.945 131.862 30.1462C132.279 30.3474 132.775 30.4466 133.352 30.4466C134.154 30.4466 134.799 30.2745 135.289 29.9304C135.776 29.5863 136.143 29.0701 136.382 28.379H138.978C138.835 29.0526 138.584 29.6534 138.234 30.1812C137.881 30.709 137.455 31.1552 136.96 31.5168C136.464 31.8784 135.907 32.1496 135.289 32.3333C134.67 32.517 134.026 32.6104 133.352 32.6104C132.375 32.6104 131.509 32.45 130.757 32.1292C130.005 31.8084 129.366 31.3593 128.847 30.7819C128.325 30.2045 127.934 29.5163 127.669 28.7143C127.403 27.9124 127.272 27.0317 127.272 26.0694C127.272 25.1887 127.412 24.3517 127.692 23.5585C127.972 22.7653 128.372 22.0684 128.894 21.4676C129.413 20.8669 130.043 20.3916 130.78 20.0387C131.518 19.6859 132.349 19.5109 133.279 19.5109C134.256 19.5109 135.134 19.715 135.91 20.1233C136.688 20.5315 137.333 21.074 137.846 21.7447C138.362 22.4183 138.736 23.194 138.966 24.066ZM136.409 24.9671C136.376 24.5355 136.283 24.1184 136.132 23.716C135.98 23.3165 135.77 22.9666 135.507 22.6691C135.242 22.3717 134.921 22.1325 134.545 21.9488C134.169 21.7651 133.749 21.6718 133.282 21.6718C132.801 21.6718 132.364 21.7563 131.973 21.9255C131.579 22.0946 131.244 22.325 130.964 22.6224C130.684 22.9199 130.46 23.2669 130.29 23.6664C130.121 24.066 130.031 24.5005 130.013 24.9641H136.409V24.9671ZM152.366 19.8492H149.001L144.049 24.8737V15.1133H141.308V32.275H144.049V27.8278L145.682 26.2414L149.482 32.275H152.824L147.607 24.4159L152.366 19.8492ZM157.702 16.1223H154.961V19.8492H152.894V21.8934H154.961V29.2247C154.976 29.7379 155.028 30.1929 155.119 30.5953C155.206 30.9948 155.375 31.3272 155.623 31.5926C155.871 31.858 156.215 32.0563 156.656 32.1934C157.096 32.3304 157.676 32.3975 158.399 32.3975C158.703 32.3975 159 32.38 159.289 32.3508C159.578 32.3187 159.872 32.2867 160.178 32.2546V30.1404C159.986 30.187 159.793 30.2162 159.601 30.2249C159.408 30.2337 159.216 30.2366 159.024 30.2366C158.72 30.2366 158.478 30.2016 158.303 30.1287C158.125 30.0558 157.994 29.9479 157.907 29.805C157.819 29.6621 157.764 29.4842 157.737 29.2772C157.714 29.0701 157.702 28.8193 157.702 28.5306V21.8905H160.178V19.8462H157.702V16.1223ZM162.22 32.275H164.961V19.8492H162.22V32.275ZM162.22 15.1133V17.7087H164.961V15.1133H162.22Z" fill="#FF7A33"/>
</svg>
