<svg width="40" height="40" viewBox="0 0 40 40" fill="none" xmlns="http://www.w3.org/2000/svg">
<path fill-rule="evenodd" clip-rule="evenodd" d="M22.5913 28.2606V28.2803C22.5913 28.5443 22.3746 28.761 22.1106 28.761H21.9313C21.8781 29.0644 21.5057 29.4151 21.0546 29.4151C20.6034 29.4151 20.2311 29.0644 20.1779 28.761H19.772C19.7188 29.0644 19.3465 29.4151 18.8953 29.4151C18.4441 29.4151 18.0718 29.0644 18.0186 28.761H17.8393C17.5753 28.761 17.3586 28.5443 17.3586 28.2803V28.2606C17.3586 27.9966 17.5753 27.7799 17.8393 27.7799H22.1086C22.3765 27.7799 22.5913 27.9966 22.5913 28.2606ZM21.0211 30.3155H18.9308C18.6668 30.3155 18.45 30.5322 18.45 30.7962V30.8159C18.45 31.0799 18.6668 31.2966 18.9308 31.2966H19.1002C19.1534 31.6 19.5257 31.9507 19.9769 31.9507C20.4281 31.9507 20.8004 31.6 20.8536 31.2966H21.023C21.287 31.2966 21.5038 31.0799 21.5038 30.8159V30.7962C21.5018 30.5322 21.2851 30.3155 21.0211 30.3155ZM15.6268 15.0528C14.7068 15.0528 13.9621 15.7975 13.9621 16.7176C13.9621 17.6376 14.7068 18.3823 15.6268 18.3823C16.5469 18.3823 17.2916 17.6376 17.2916 16.7176C17.2916 15.7975 16.5469 15.0528 15.6268 15.0528ZM31.4392 7.29245V16.692C31.4392 16.7314 31.4352 16.7688 31.4293 16.8062C31.3761 18.8847 30.3319 20.7209 28.7539 21.8596C28.8012 21.8892 28.8445 21.9266 28.8819 21.9719C29.5518 22.8053 30.8718 24.7341 30.8718 26.98C30.8718 29.1688 29.9438 31.0562 29.4375 31.9231C29.2779 32.1969 28.9036 32.2482 28.677 32.0275C28.6002 31.9527 28.5175 31.8679 28.4288 31.7753C27.0221 33.844 24.788 35.3649 22.1677 35.9166V39.1535C22.1677 39.5791 21.8229 39.9219 21.3993 39.9219C20.9738 39.9219 20.631 39.5771 20.631 39.1535V36.1234C20.4143 36.1372 20.1976 36.1431 19.9769 36.1431C19.7582 36.1431 19.5395 36.1353 19.3228 36.1234V39.1535C19.3228 39.5791 18.978 39.9219 18.5545 39.9219C18.1289 39.9219 17.7861 39.5771 17.7861 39.1535V35.9166C15.1658 35.3649 12.9317 33.842 11.525 31.7753C11.4364 31.8679 11.3516 31.9527 11.2768 32.0275C11.0502 32.2501 10.6759 32.1969 10.5163 31.9231C10.01 31.0562 9.08205 29.1688 9.08205 26.98C9.08205 24.7341 10.402 22.8053 11.0719 21.9719C11.1093 21.9247 11.1527 21.8872 11.1999 21.8596C9.60019 20.7032 8.54814 18.8335 8.52253 16.7196C8.51859 16.6861 8.51465 16.6506 8.51465 16.6151V7.29245C8.51465 6.98708 8.69196 6.70929 8.97172 6.58123C9.24951 6.45317 9.57655 6.50045 9.80903 6.69944L12.8115 9.28032C14.6654 7.74755 17.2325 6.88069 19.9769 6.88069C22.7213 6.88069 25.2884 7.74755 27.1423 9.28032L30.1448 6.69944C30.3773 6.50045 30.7043 6.45317 30.9821 6.58123C31.2599 6.70929 31.4392 6.98708 31.4392 7.29245ZM15.6071 9.51279C16.2002 9.84772 17.8098 10.6239 19.9749 10.6239C22.1381 10.6239 23.7517 9.84575 24.3447 9.51279C24.6402 9.34533 24.7446 8.971 24.5791 8.67548C24.4117 8.37996 24.0374 8.27555 23.7418 8.44104C23.2335 8.72868 21.8485 9.39458 19.9749 9.39458C18.1033 9.39458 16.7203 8.72868 16.212 8.44104C15.9165 8.27358 15.5402 8.37799 15.3747 8.67351C15.2072 8.971 15.3116 9.3473 15.6071 9.51279ZM29.8887 16.8516C29.8788 16.8003 29.8729 16.7471 29.8729 16.692V16.1876C29.6444 13.7013 27.5462 11.7469 25.0027 11.7469C23.1705 11.7469 21.5057 12.7576 20.6605 14.3849C20.6605 14.3869 20.6586 14.3869 20.6586 14.3889C20.6487 14.4066 20.6389 14.4224 20.629 14.4381C20.6251 14.444 20.6231 14.45 20.6192 14.4539C20.6093 14.4697 20.5975 14.4854 20.5857 14.4992C20.5817 14.5051 20.5778 14.5091 20.5739 14.515C20.564 14.5288 20.5522 14.5406 20.5404 14.5524C20.5345 14.5583 20.5285 14.5662 20.5226 14.5721C20.5128 14.582 20.5029 14.5898 20.4931 14.5977C20.4832 14.6056 20.4754 14.6154 20.4655 14.6233C20.4576 14.6292 20.4497 14.6351 20.4419 14.6411C20.43 14.6509 20.4182 14.6588 20.4044 14.6686C20.3965 14.6746 20.3887 14.6785 20.3808 14.6824C20.367 14.6903 20.3532 14.7002 20.3394 14.7061C20.3374 14.7061 20.3355 14.708 20.3335 14.71C20.3256 14.714 20.3177 14.7179 20.3099 14.7218C20.2961 14.7277 20.2842 14.7337 20.2705 14.7396C20.2586 14.7455 20.2448 14.7494 20.233 14.7534C20.2212 14.7573 20.2114 14.7612 20.1995 14.7652C20.1857 14.7691 20.1719 14.7731 20.1582 14.777C20.1483 14.779 20.1385 14.7829 20.1286 14.7849C20.1148 14.7868 20.0991 14.7908 20.0853 14.7928C20.0754 14.7947 20.0636 14.7967 20.0537 14.7967C20.04 14.7987 20.0281 14.7987 20.0143 14.7987C20.0025 14.7987 19.9907 14.8006 19.9789 14.8006C19.9671 14.8006 19.9552 14.8006 19.9434 14.7987C19.9296 14.7987 19.9158 14.7967 19.902 14.7967C19.8922 14.7947 19.8823 14.7947 19.8725 14.7928C19.8567 14.7908 19.8429 14.7888 19.8272 14.7849C19.8173 14.7829 19.8094 14.7809 19.7996 14.779C19.7838 14.775 19.77 14.7711 19.7543 14.7671C19.7444 14.7652 19.7346 14.7612 19.7247 14.7573C19.7109 14.7534 19.6971 14.7474 19.6834 14.7415C19.6715 14.7376 19.6617 14.7317 19.6518 14.7258C19.642 14.7218 19.6321 14.7179 19.6223 14.712C19.6203 14.71 19.6183 14.71 19.6164 14.708C19.6045 14.7021 19.5947 14.6962 19.5829 14.6883C19.5711 14.6824 19.5612 14.6746 19.5494 14.6686C19.5415 14.6627 19.5317 14.6568 19.5238 14.6509C19.512 14.643 19.5001 14.6332 19.4883 14.6233C19.4844 14.6194 19.4785 14.6154 19.4745 14.6115C19.4607 14.5997 19.445 14.5859 19.4331 14.5721C19.4312 14.5701 19.4292 14.5682 19.4272 14.5662C19.4115 14.5504 19.3957 14.5327 19.3819 14.515C19.38 14.513 19.38 14.511 19.378 14.5091C19.3642 14.4913 19.3504 14.4716 19.3366 14.4539C19.3346 14.45 19.3327 14.448 19.3307 14.444C19.3189 14.4263 19.3071 14.4066 19.2972 14.3889C19.2972 14.3869 19.2952 14.3869 19.2952 14.3849C18.4481 12.7576 16.7833 11.7489 14.9531 11.7489C12.4076 11.7489 10.3114 13.7033 10.0829 16.1896V16.6151C10.0829 16.6723 10.077 16.7274 10.0651 16.7806C10.14 19.4147 12.3032 21.5326 14.955 21.5326C15.8179 21.5326 16.6651 21.306 17.4059 20.8765C17.7723 20.6638 18.2432 20.7879 18.456 21.1563C18.6687 21.5227 18.5446 21.9936 18.1762 22.2064C17.201 22.7718 16.0879 23.0693 14.955 23.0693C14.1512 23.0693 13.3809 22.9196 12.6716 22.6497C12.6165 22.7364 12.5633 22.825 12.5101 22.9156C13.1425 23.9125 13.8242 25.3645 13.8242 26.9781C13.8242 28.3335 13.2193 29.5727 12.5534 30.5243C14.0054 32.9555 16.7892 34.6045 19.9789 34.6045C23.1685 34.6045 25.9523 32.9555 27.4043 30.5243C26.7384 29.5708 26.1336 28.3315 26.1336 26.9781C26.1336 25.3625 26.8153 23.9125 27.4477 22.9156C27.3964 22.827 27.3432 22.7383 27.2861 22.6497C26.5749 22.9196 25.8065 23.0713 25.0027 23.0713C23.8699 23.0713 22.7568 22.7718 21.7816 22.2084C21.4151 21.9956 21.289 21.5247 21.5018 21.1583C21.7146 20.7918 22.1854 20.6657 22.5519 20.8785C23.2926 21.308 24.1398 21.5346 25.0027 21.5346C27.6289 21.5326 29.7783 19.4521 29.8887 16.8516ZM24.327 15.0528C23.4069 15.0528 22.6622 15.7975 22.6622 16.7176C22.6622 17.6376 23.4069 18.3823 24.327 18.3823C25.247 18.3823 25.9917 17.6376 25.9917 16.7176C25.9917 15.7975 25.2451 15.0528 24.327 15.0528ZM16.3814 25.7349C16.3814 26.0048 16.6021 26.2255 16.872 26.2255H16.9429C16.9961 26.5289 17.3684 26.8795 17.8196 26.8795C18.2708 26.8795 18.6431 26.5289 18.6963 26.2255H19.1022C19.1554 26.5289 19.5277 26.8795 19.9789 26.8795C20.43 26.8795 20.8024 26.5289 20.8556 26.2255H21.2614C21.3146 26.5289 21.687 26.8795 22.1381 26.8795C22.5893 26.8795 22.9617 26.5289 23.0149 26.2255H23.0858C23.3557 26.2255 23.5763 26.0048 23.5763 25.7349C23.5763 25.465 23.3557 25.2443 23.0858 25.2443H16.872C16.6021 25.2443 16.3814 25.465 16.3814 25.7349ZM21.2752 19.5822H18.6786C18.5013 19.5822 18.389 19.7752 18.4776 19.9289L19.776 22.1788C19.8646 22.3325 20.0872 22.3325 20.1759 22.1788L21.4742 19.9289C21.5648 19.7752 21.4525 19.5822 21.2752 19.5822Z" fill="#FF7A33"/>
<path fill-rule="evenodd" clip-rule="evenodd" d="M27.6209 3.9058C27.8613 3.80729 27.8652 3.46843 27.6288 3.36401L20.6526 0.274835C20.0812 0.0206876 19.4311 0.0128071 18.8519 0.251194L12.3307 2.9424C12.0904 3.04091 12.0864 3.37977 12.3228 3.48419L15.7075 4.98346V8.63216C15.7075 8.77598 15.7844 8.90797 15.9085 8.97693C16.4325 9.27245 17.9397 10.0093 19.9729 10.0093C22.006 10.0093 23.5171 9.27245 24.0412 8.97693C24.1653 8.906 24.2422 8.774 24.2422 8.63216V5.29868L26.9728 4.17177V6.7487L26.6418 7.521C26.6063 7.60374 26.6674 7.69437 26.756 7.69437H27.5717C27.6603 7.69437 27.7214 7.60374 27.686 7.521L27.355 6.7487V4.01416L27.6209 3.9058Z" fill="#0082CD"/>
</svg>
