<svg width="97" height="33" viewBox="0 0 97 33" fill="none" xmlns="http://www.w3.org/2000/svg">
<path d="M88.7357 0.113281H8.25021C7.95664 0.113281 7.66306 0.113281 7.36948 0.113281C7.12107 0.113281 6.87266 0.113281 6.62424 0.113281C6.08225 0.113281 5.54026 0.158447 5.02086 0.248779C4.50145 0.33911 3.98204 0.497191 3.5078 0.745603C3.03356 1.0166 2.60448 1.33276 2.22057 1.71667C1.83667 2.10058 1.5205 2.52965 1.27209 3.0039C1.02368 3.47814 0.8656 3.99754 0.775268 4.51695C0.684936 5.03636 0.63977 5.57835 0.63977 6.12034C0.63977 6.36875 0.63977 6.61716 0.617188 6.86557V25.361C0.617188 25.6094 0.617188 25.8578 0.63977 26.1062C0.63977 26.6482 0.684936 27.1676 0.775268 27.7096C0.8656 28.229 1.02368 28.7484 1.27209 29.2227C1.5205 29.6969 1.83667 30.1486 2.22057 30.5099C2.60448 30.8938 3.03356 31.21 3.5078 31.4584C3.98204 31.7068 4.50145 31.8649 5.02086 31.9552C5.56285 32.0455 6.08225 32.0907 6.62424 32.0907C6.87266 32.0907 7.12107 32.0907 7.36948 32.0907C7.66306 32.0907 7.95664 32.0907 8.25021 32.0907H88.7583C89.0519 32.0907 89.3455 32.0907 89.6165 32.0907C89.8649 32.0907 90.1133 32.0907 90.3617 32.0907C90.9037 32.0907 91.4231 32.0455 91.9651 31.9552C92.5071 31.8649 93.0039 31.6842 93.5007 31.4584C93.975 31.21 94.4266 30.8938 94.788 30.5099C95.1719 30.126 95.488 29.6969 95.7365 29.2227C95.9849 28.7484 96.1429 28.229 96.2333 27.7096C96.3236 27.1902 96.3688 26.6482 96.3914 26.1062C96.3914 25.8578 96.3914 25.6094 96.3914 25.361C96.3914 25.0674 96.3914 24.7738 96.3914 24.4803V7.74631C96.3914 7.45273 96.3914 7.15915 96.3914 6.86557C96.3914 6.61716 96.3914 6.36875 96.3914 6.12034C96.3914 5.57835 96.3236 5.05894 96.2333 4.51695C96.1429 3.99754 95.9849 3.47814 95.7365 3.0039C95.2396 2.03283 94.4492 1.26501 93.5007 0.768186C93.0265 0.519774 92.5071 0.361693 91.9651 0.271362C91.4457 0.18103 90.9037 0.135864 90.3617 0.135864C90.1133 0.135864 89.8649 0.135864 89.6165 0.135864C89.3229 0.113281 89.0293 0.113281 88.7357 0.113281Z" fill="#C4CDD5"/>
<path d="M7.36948 31.4133C7.12107 31.4133 6.89524 31.4133 6.64683 31.4133C6.15001 31.4133 5.65318 31.3682 5.15636 31.2778C4.7047 31.1875 4.25304 31.052 3.82397 30.8488C3.41747 30.6455 3.03356 30.3745 2.7174 30.0358C2.37866 29.7196 2.10766 29.3357 1.90442 28.9292C1.70117 28.5227 1.54309 28.0711 1.47534 27.5968C1.38501 27.1 1.33984 26.6032 1.33984 26.1063C1.33984 25.9483 1.31726 25.3837 1.31726 25.3837V6.8657C1.31726 6.8657 1.31726 6.30113 1.33984 6.14305C1.33984 5.64622 1.38501 5.1494 1.47534 4.65257C1.54309 4.20091 1.70117 3.74926 1.90442 3.32018C2.10766 2.91369 2.37866 2.52978 2.7174 2.19103C3.05615 1.85229 3.41747 1.5813 3.84655 1.37805C4.25304 1.1748 4.7047 1.01672 5.17894 0.948974C5.67576 0.858642 6.17259 0.813477 6.66941 0.813477H7.39207H89.6165H90.3391C90.836 0.813477 91.3328 0.858642 91.8296 0.948974C92.3038 1.01672 92.7555 1.1748 93.162 1.37805C93.9976 1.80713 94.6751 2.48461 95.1041 3.32018C95.3074 3.72667 95.4655 4.17833 95.5332 4.62999C95.6235 5.12681 95.6687 5.62364 95.6687 6.14305C95.6687 6.36888 95.6687 6.61729 95.6687 6.8657C95.6687 7.15928 95.6687 7.45286 95.6687 7.74643V24.503C95.6687 24.7965 95.6687 25.0675 95.6687 25.3611C95.6687 25.6321 95.6687 25.8579 95.6687 26.1063C95.6687 26.6032 95.6235 27.1 95.5332 27.5968C95.4655 28.0711 95.3074 28.5227 95.1041 28.9292C94.9009 29.3357 94.6299 29.7196 94.2911 30.0358C93.975 30.3745 93.5911 30.6455 93.162 30.8488C92.7329 31.052 92.2813 31.2101 91.8296 31.2778C91.3328 31.3682 90.836 31.3908 90.3391 31.4133C90.1133 31.4133 89.8649 31.4133 89.6165 31.4133H88.7583H7.36948Z" fill="#010101"/>
<path d="M20.445 16.351C20.4675 14.996 21.1676 13.7314 22.3419 13.0313C21.6193 11.9925 20.4224 11.3376 19.1577 11.315C17.8253 11.1795 16.5155 12.128 15.838 12.128C15.138 12.128 14.0766 11.3376 12.9474 11.3602C11.457 11.4053 10.102 12.2409 9.37933 13.5507C7.82111 16.2381 8.99542 20.1675 10.4633 22.3355C11.2085 23.3969 12.0667 24.5712 13.1958 24.5486C14.3024 24.5034 14.7315 23.8485 16.0639 23.8485C17.3963 23.8485 17.7802 24.5486 18.9319 24.526C20.1288 24.5034 20.874 23.4646 21.5967 22.3806C22.1387 21.6354 22.5452 20.7998 22.8162 19.8965C21.3483 19.2868 20.445 17.8866 20.445 16.351Z" fill="white"/>
<path d="M18.2545 9.89208C18.9094 9.10168 19.2255 8.10803 19.1352 7.0918C18.1416 7.20471 17.2157 7.67895 16.5608 8.42419C15.9058 9.16943 15.5897 10.1405 15.6349 11.1116C16.6737 11.1116 17.6222 10.6599 18.2545 9.89208Z" fill="white"/>
<path d="M34.469 21.838H30.675L29.7717 24.5254H28.1683L31.759 14.5889H33.4302L37.0208 24.5254H35.3949L34.469 21.838ZM31.0815 20.5959H34.0851L32.5946 16.2374H32.5494L31.0815 20.5959Z" fill="white"/>
<path d="M44.7442 20.8899C44.7442 23.1482 43.5473 24.5935 41.7181 24.5935C40.7696 24.6386 39.8889 24.1418 39.4372 23.3288H39.3921V26.9195H37.9016V17.2766H39.3469V18.4735H39.3695C39.8437 17.6605 40.7245 17.1637 41.673 17.1863C43.5473 17.1863 44.7442 18.6542 44.7442 20.8899ZM43.2312 20.8899C43.2312 19.422 42.4634 18.4509 41.3116 18.4509C40.1825 18.4509 39.4147 19.4446 39.4147 20.8899C39.4147 22.3578 40.1825 23.3288 41.3116 23.3288C42.4634 23.3288 43.2312 22.3804 43.2312 20.8899Z" fill="white"/>
<path d="M52.7385 20.8899C52.7385 23.1482 51.5416 24.5935 49.7124 24.5935C48.7639 24.6386 47.8832 24.1418 47.4315 23.3288H47.3863V26.9195H45.8959V17.2766H47.3412V18.4735H47.3638C47.838 17.6605 48.7187 17.1637 49.6672 17.1863C51.519 17.1863 52.7385 18.6542 52.7385 20.8899ZM51.2029 20.8899C51.2029 19.422 50.435 18.4509 49.2833 18.4509C48.1542 18.4509 47.3863 19.4446 47.3863 20.8899C47.3863 22.3578 48.1542 23.3288 49.2833 23.3288C50.435 23.3288 51.2029 22.3804 51.2029 20.8899Z" fill="white"/>
<path d="M58.0004 21.7478C58.1133 22.7414 59.0618 23.3737 60.3716 23.3737C61.6362 23.3737 62.5169 22.7188 62.5169 21.8381C62.5169 21.0703 61.975 20.596 60.6877 20.2799L59.4005 19.9637C57.5713 19.5121 56.7357 18.6765 56.7357 17.2764C56.7357 15.5601 58.2262 14.3857 60.349 14.3857C62.4492 14.3857 63.8945 15.5601 63.9397 17.2764H62.4492C62.3589 16.2827 61.5459 15.6956 60.349 15.6956C59.1521 15.6956 58.3391 16.3053 58.3391 17.186C58.3391 17.8861 58.8585 18.2926 60.1457 18.6087L61.2297 18.8797C63.2622 19.354 64.1203 20.1896 64.1203 21.6349C64.1203 23.4867 62.6299 24.661 60.2812 24.661C58.0681 24.661 56.6002 23.5318 56.4873 21.7252H58.0004V21.7478Z" fill="white"/>
<path d="M67.3046 15.5596V17.2759H68.6821V18.4502H67.3046V22.4474C67.3046 23.0571 67.5756 23.3507 68.1853 23.3507C68.3434 23.3507 68.524 23.3281 68.6821 23.3055V24.4798C68.4111 24.525 68.1401 24.5476 67.8465 24.5476C66.3787 24.5476 65.8141 24.0056 65.8141 22.5829V18.4502H64.7527V17.2759H65.8141V15.5596H67.3046Z" fill="white"/>
<path d="M69.4951 20.8891C69.4951 18.6083 70.8275 17.1855 72.9277 17.1855C75.0279 17.1855 76.3603 18.6083 76.3603 20.8891C76.3603 23.17 75.0279 24.5927 72.9277 24.5927C70.8275 24.5927 69.4951 23.17 69.4951 20.8891ZM74.8473 20.8891C74.8473 19.3309 74.1246 18.405 72.9277 18.405C71.7308 18.405 71.0082 19.3309 71.0082 20.8891C71.0082 22.47 71.7308 23.3733 72.9277 23.3733C74.1246 23.3733 74.8473 22.47 74.8473 20.8891Z" fill="white"/>
<path d="M77.5797 17.2764H79.0024V18.5185H79.0476C79.2508 17.7281 79.9735 17.1861 80.7865 17.2087C80.9672 17.2087 81.1252 17.2313 81.3059 17.2539V18.6314C81.0801 18.5637 80.8542 18.5411 80.6284 18.5411C79.7928 18.5185 79.1154 19.1508 79.0702 19.9864C79.0702 20.0541 79.0702 20.1445 79.0702 20.2122V24.503H77.5797V17.2764Z" fill="white"/>
<path d="M88.1485 22.3797C87.9453 23.6896 86.6581 24.5929 85.0321 24.5929C82.9319 24.5929 81.6221 23.1701 81.6221 20.9119C81.6221 18.631 82.9319 17.1631 84.9869 17.1631C86.9968 17.1631 88.2614 18.5406 88.2614 20.7312V21.2506H83.1351V21.3409C83.0448 22.3797 83.8126 23.3056 84.8514 23.396C84.9192 23.396 85.0095 23.396 85.0773 23.396C85.7999 23.4637 86.4774 23.0572 86.7484 22.3797H88.1485ZM83.1125 20.2344H86.7258C86.771 19.2633 86.0483 18.4503 85.0773 18.4051C85.0321 18.4051 84.9869 18.4051 84.9418 18.4051C83.9481 18.3826 83.1125 19.1955 83.1125 20.2344C83.1125 20.2118 83.1125 20.2118 83.1125 20.2344Z" fill="white"/>
<path d="M30.8105 6.86523C32.3462 6.86523 33.0914 7.76855 33.0914 9.4171C33.0914 11.0657 32.3462 11.9916 30.8105 11.9916H29.0491V6.86523H30.8105ZM29.9072 11.2689H30.7428C31.6913 11.2689 32.2333 10.7495 32.2333 9.4171C32.2333 8.24279 31.8042 7.56531 30.7428 7.56531H29.9072V11.2689Z" fill="white"/>
<path d="M37.2015 9.84704V10.1632C37.2015 11.2698 36.5918 12.0602 35.4401 12.0602C34.2883 12.0602 33.6786 11.2698 33.6786 10.1632V9.84704C33.6786 8.76306 34.3109 7.97266 35.4401 7.97266C36.5692 7.97266 37.2015 8.76306 37.2015 9.84704ZM34.5142 9.84704V10.1406C34.5142 10.8407 34.8077 11.3601 35.4401 11.3601C36.0724 11.3601 36.366 10.8407 36.366 10.1406V9.84704C36.366 9.12439 36.0724 8.62756 35.4401 8.62756C34.8077 8.62756 34.5142 9.12439 34.5142 9.84704Z" fill="white"/>
<path d="M42.0569 11.9922H41.1761L40.3632 9.05639H40.3406L39.505 11.9696H38.6243L37.6306 8.01758H38.4662L39.1211 11.0437H39.1663L39.9792 8.01758H40.7696L41.5826 11.0437H41.6052L42.2601 8.01758H43.0957L42.0569 11.9922Z" fill="white"/>
<path d="M43.728 8.01782H44.541V8.5824H44.5636C44.6991 8.3114 45.0604 7.97266 45.7153 7.97266C46.5283 7.97266 47.1155 8.49206 47.1155 9.44055V11.9924H46.2799V9.62121C46.2799 8.98889 45.9186 8.69531 45.4217 8.69531C44.8346 8.69531 44.541 9.1018 44.541 9.64379V12.015H43.7054V8.01782H43.728Z" fill="white"/>
<path d="M48.0638 6.59473H48.8994V11.992H48.0638V6.59473Z" fill="white"/>
<path d="M53.2579 9.84704V10.1632C53.2579 11.2698 52.6482 12.0602 51.4965 12.0602C50.3447 12.0602 49.735 11.2698 49.735 10.1632V9.84704C49.735 8.76306 50.3673 7.97266 51.4965 7.97266C52.6256 7.97266 53.2579 8.76306 53.2579 9.84704ZM50.5931 9.84704V10.1406C50.5931 10.8407 50.8867 11.3601 51.519 11.3601C52.1514 11.3601 52.4449 10.8407 52.4449 10.1406V9.84704C52.4449 9.12439 52.1514 8.62756 51.519 8.62756C50.8867 8.62756 50.5931 9.12439 50.5931 9.84704Z" fill="white"/>
<path d="M55.1775 12.0602C54.4097 12.0602 53.8903 11.6085 53.8903 10.8633C53.8903 10.1632 54.3871 9.71154 55.2904 9.71154H56.284V9.32763C56.284 8.87597 56.0131 8.62756 55.5388 8.62756C55.0872 8.62756 54.8162 8.85339 54.7936 9.21472H54.0032C54.0258 8.53723 54.4774 7.97266 55.5388 7.97266C56.4195 7.97266 57.0745 8.40173 57.0745 9.30505V12.015H56.284V11.5182H56.2615C56.1034 11.8118 55.7646 12.0602 55.1775 12.0602ZM56.284 10.6826V10.2535H55.4259C54.9517 10.2535 54.7258 10.4794 54.7258 10.8181C54.7258 11.2246 55.0646 11.4278 55.4485 11.4278C55.9001 11.4053 56.284 11.1117 56.284 10.6826Z" fill="white"/>
<path d="M60.5748 8.58202H60.5974V6.59473H61.433V11.992H60.62V11.3823H60.5974C60.3942 11.7888 59.9877 12.0372 59.4457 12.0372C58.452 12.0372 57.8875 11.292 57.8875 10.1628V9.82408C57.8875 8.71752 58.4746 7.97228 59.4457 7.97228C59.9651 7.97228 60.3716 8.24328 60.5748 8.58202ZM58.7456 9.86925V10.1628C58.7456 10.9758 59.1295 11.3597 59.6715 11.3597C60.2587 11.3597 60.62 10.9306 60.62 10.1628V9.86925C60.62 9.12401 60.2587 8.67236 59.6715 8.67236C59.1295 8.64977 58.7456 9.05627 58.7456 9.86925Z" fill="white"/>
<path d="M67.2368 9.84704V10.1632C67.2368 11.2698 66.6271 12.0602 65.4753 12.0602C64.3236 12.0602 63.7139 11.2698 63.7139 10.1632V9.84704C63.7139 8.76306 64.3462 7.97266 65.4753 7.97266C66.6045 7.97266 67.2368 8.76306 67.2368 9.84704ZM64.5494 9.84704V10.1406C64.5494 10.8407 64.843 11.3601 65.4753 11.3601C66.1077 11.3601 66.4012 10.8407 66.4012 10.1406V9.84704C66.4012 9.12439 66.1077 8.62756 65.4753 8.62756C64.843 8.62756 64.5494 9.12439 64.5494 9.84704Z" fill="white"/>
<path d="M68.0498 8.01782H68.8628V8.5824H68.8854C69.0209 8.3114 69.3822 7.97266 70.0371 7.97266C70.8501 7.97266 71.4372 8.49206 71.4372 9.44055V11.9924H70.6243V9.62121C70.6243 8.98889 70.2629 8.69531 69.7661 8.69531C69.179 8.69531 68.8854 9.1018 68.8854 9.64379V12.015H68.0498V8.01782Z" fill="white"/>
<path d="M74.102 7.06934H74.915V8.01782H75.6829V8.69531H74.915V10.8181C74.915 11.2472 75.0731 11.3601 75.5248 11.3601C75.5925 11.3601 75.6603 11.3601 75.7054 11.3601V11.9924C75.6377 11.9924 75.4796 12.015 75.3215 12.015C74.3505 12.015 74.102 11.6763 74.102 10.8858V8.69531H73.5601V8.01782H74.1246V7.06934H74.102Z" fill="white"/>
<path d="M76.541 6.59473H77.3766V8.58202H77.3992C77.5347 8.31103 77.896 7.97228 78.5509 7.97228C79.3639 7.97228 79.951 8.49169 79.951 9.44017V11.992H79.1155V9.62084C79.1155 8.98852 78.7541 8.69494 78.2573 8.69494C77.6702 8.69494 77.3766 9.10143 77.3766 9.64342V12.0146H76.541V6.59473Z" fill="white"/>
<path d="M80.6962 10.1849V9.77844C80.6962 8.67187 81.3511 7.94922 82.3899 7.94922C83.4513 7.94922 84.0836 8.69446 84.0836 9.80102V10.1849H81.5092V10.2753C81.5092 10.9527 81.8705 11.3818 82.435 11.3818C82.8641 11.3818 83.1577 11.1786 83.248 10.8398H84.0384C83.9255 11.4722 83.4061 12.0367 82.4125 12.0367C81.3737 12.0593 80.6962 11.3592 80.6962 10.1849ZM83.2706 9.62035C83.2706 9.05578 82.9319 8.60412 82.3899 8.60412C81.8479 8.60412 81.5092 9.05578 81.5092 9.59777H83.2706V9.62035Z" fill="white"/>
</svg>
