<svg width="109" height="33" viewBox="0 0 109 33" fill="none" xmlns="http://www.w3.org/2000/svg">
<path d="M104.386 32.1133H4.36595C2.17541 32.1133 0.368774 30.3292 0.368774 28.1161V4.11046C0.368774 1.91992 2.17541 0.113281 4.36595 0.113281H104.386C106.576 0.113281 108.383 1.91992 108.383 4.11046V28.1161C108.383 30.3292 106.599 32.1133 104.386 32.1133Z" fill="black" style="mix-blend-mode:multiply"/>
<path d="M104.386 0.745603C106.238 0.745603 107.751 2.25866 107.751 4.11046V28.1161C107.751 29.9679 106.238 31.481 104.386 31.481H4.36595C2.51415 31.481 1.0011 29.9679 1.0011 28.1161V4.11046C1.0011 2.25866 2.51415 0.745603 4.36595 0.745603H104.386ZM104.386 0.113281H4.36595C2.17541 0.113281 0.368774 1.91992 0.368774 4.11046V28.1161C0.368774 30.3066 2.17541 32.1133 4.36595 32.1133H104.386C106.576 32.1133 108.383 30.3066 108.383 28.1161V4.11046C108.383 1.91992 106.599 0.113281 104.386 0.113281Z" fill="#C4CDD5"/>
<path d="M54.884 17.5251C53.0096 17.5251 51.4739 18.9479 51.4739 20.9352C51.4739 22.8999 53.0096 24.3452 54.884 24.3452C56.7583 24.3452 58.294 22.8999 58.294 20.9352C58.3166 18.9479 56.7809 17.5251 54.884 17.5251ZM54.884 22.9902C53.8451 22.9902 52.9644 22.132 52.9644 20.9352C52.9644 19.7157 53.8451 18.8801 54.884 18.8801C55.9228 18.8801 56.8035 19.7157 56.8035 20.9352C56.8035 22.132 55.9228 22.9902 54.884 22.9902ZM47.4316 17.5251C45.5572 17.5251 44.0216 18.9479 44.0216 20.9352C44.0216 22.8999 45.5572 24.3452 47.4316 24.3452C49.306 24.3452 50.8416 22.8999 50.8416 20.9352C50.8642 18.9479 49.3286 17.5251 47.4316 17.5251ZM47.4316 22.9902C46.3928 22.9902 45.512 22.132 45.512 20.9352C45.512 19.7157 46.3928 18.8801 47.4316 18.8801C48.4704 18.8801 49.3511 19.7157 49.3511 20.9352C49.3511 22.132 48.4704 22.9902 47.4316 22.9902ZM38.5791 18.5639V20.0093H42.0343C41.9214 20.8222 41.6504 21.4094 41.2439 21.8159C40.747 22.3127 39.9566 22.8773 38.5791 22.8773C36.4563 22.8773 34.7851 21.161 34.7851 19.0382C34.7851 16.9154 36.4563 15.1991 38.5791 15.1991C39.7308 15.1991 40.5664 15.6508 41.1761 16.2379L42.1923 15.2217C41.3342 14.3861 40.1825 13.7764 38.5791 13.7764C35.6659 13.7764 33.2269 16.1476 33.2269 19.0608C33.2269 21.974 35.6659 24.3452 38.5791 24.3452C40.1599 24.3452 41.3342 23.8258 42.2601 22.8547C43.2086 21.9062 43.5022 20.5512 43.5022 19.4673C43.5022 19.1285 43.4796 18.8124 43.4344 18.5639H38.5791ZM74.8247 19.6931C74.5311 18.9253 73.6729 17.5251 71.9115 17.5251C70.15 17.5251 68.7047 18.9027 68.7047 20.9352C68.7047 22.8321 70.15 24.3452 72.0921 24.3452C73.6504 24.3452 74.5537 23.3967 74.9376 22.8321L73.7859 22.0643C73.402 22.6289 72.86 23.0128 72.1147 23.0128C71.3469 23.0128 70.8049 22.674 70.4662 21.974L75.0053 20.0996L74.8247 19.6931ZM70.1952 20.8222C70.15 19.5124 71.2114 18.8349 71.9792 18.8349C72.5664 18.8349 73.0858 19.1285 73.2439 19.5576L70.1952 20.8222ZM66.4916 24.1193H67.982V14.1151H66.4916V24.1193ZM64.03 18.2704H63.9849C63.6461 17.8639 63.0138 17.5025 62.2008 17.5025C60.5071 17.5025 58.9489 18.993 58.9489 20.9126C58.9489 22.8095 60.5071 24.3 62.2008 24.3C63.0138 24.3 63.6687 23.9387 63.9849 23.5322H64.03V24.029C64.03 25.3388 63.33 26.0163 62.2234 26.0163C61.2975 26.0163 60.7329 25.3614 60.5071 24.7968L59.1973 25.3388C59.5812 26.2421 60.5523 27.3487 62.2234 27.3487C63.9849 27.3487 65.4528 26.3099 65.4528 23.8032V17.7284H64.03V18.2704ZM62.3137 22.9902C61.2749 22.9902 60.4168 22.132 60.4168 20.9352C60.4168 19.7383 61.2749 18.8575 62.3137 18.8575C63.33 18.8575 64.1204 19.7383 64.1204 20.9352C64.1429 22.132 63.33 22.9902 62.3137 22.9902ZM81.8254 14.1151H78.2573V24.1193H79.7477V20.3254H81.8254C83.4739 20.3254 85.0999 19.1285 85.0999 17.209C85.1225 15.312 83.4965 14.1151 81.8254 14.1151ZM81.8705 18.9479H79.7477V15.5153H81.8705C82.9771 15.5153 83.6094 16.4412 83.6094 17.2316C83.6094 17.9994 82.9771 18.9479 81.8705 18.9479ZM91.107 17.5025C90.023 17.5025 88.9164 17.9768 88.4422 19.0382L89.7746 19.5802C90.0681 19.0382 90.5876 18.8575 91.1295 18.8575C91.8974 18.8575 92.6878 19.3092 92.7103 20.1448V20.2577C92.4394 20.0996 91.8522 19.8738 91.1521 19.8738C89.7294 19.8738 88.2615 20.6642 88.2615 22.132C88.2615 23.4644 89.4358 24.3226 90.7456 24.3226C91.7393 24.3226 92.3039 23.8709 92.6426 23.3515H92.6878V24.1193H94.1331V20.2802C94.1331 18.4962 92.8007 17.5025 91.107 17.5025ZM90.9263 22.9902C90.4295 22.9902 89.752 22.7418 89.752 22.132C89.752 21.3642 90.6101 21.0707 91.3328 21.0707C91.9877 21.0707 92.3039 21.2061 92.6878 21.4094C92.5748 22.3353 91.7844 22.9902 90.9263 22.9902ZM99.3949 17.7284L97.6786 22.0643H97.6334L95.8494 17.7284H94.246L96.9108 23.7806L95.3977 27.1455H96.9559L101.043 17.7284H99.3949ZM85.9355 24.1193H87.4259V14.1151H85.9355V24.1193Z" fill="white"/>
<path d="M8.72449 6.14294C8.49866 6.39136 8.36316 6.77527 8.36316 7.27209V24.9545C8.36316 25.4513 8.49866 25.8353 8.72449 26.0837L8.79223 26.1514L18.7061 16.2375V16.1246V16.0117L8.76965 6.0752L8.72449 6.14294Z" fill="url(#paint0_linear_3053_8998)"/>
<path d="M22.0033 19.5349L18.6836 16.2378V16.1249V16.012L21.9807 12.7148L22.0484 12.76L25.9553 14.9957C27.0844 15.628 27.0844 16.6669 25.9553 17.2992L22.0484 19.5349H22.0033Z" fill="url(#paint1_linear_3053_8998)"/>
<path d="M22.071 19.49L18.6836 16.1025L8.72449 26.0842C9.08581 26.4681 9.69555 26.5133 10.3956 26.1294L22.071 19.49Z" fill="url(#paint2_linear_3053_8998)"/>
<path d="M22.071 12.7378L10.373 6.09837C9.69555 5.71446 9.08581 5.75963 8.7019 6.14354L18.6836 16.1252L22.071 12.7378Z" fill="url(#paint3_linear_3053_8998)"/>
<path opacity="0.2" d="M22.0032 19.4219L10.3956 26.0161C9.74072 26.3774 9.17615 26.3548 8.79224 26.0161L8.72449 26.0838L8.79224 26.1516C9.17615 26.4903 9.74072 26.5129 10.3956 26.1516L22.0936 19.5122L22.0032 19.4219Z" fill="#010101"/>
<path opacity="0.12" d="M8.72449 25.9709C8.49866 25.7225 8.36316 25.3386 8.36316 24.8418V24.9547C8.36316 25.4515 8.49866 25.8354 8.72449 26.0839L8.79223 26.0161L8.72449 25.9709Z" fill="#010101"/>
<path opacity="0.12" d="M25.9779 17.1638L21.9807 19.4221L22.0485 19.4899L25.9553 17.2767C26.5199 16.9606 26.7909 16.5315 26.7909 16.125C26.7683 16.4863 26.4973 16.8702 25.9779 17.1638Z" fill="#010101"/>
<path opacity="0.25" d="M10.373 6.21093L25.9778 15.086C26.4747 15.3796 26.7682 15.7409 26.8134 16.1248C26.8134 15.6958 26.5424 15.2893 25.9778 14.9731L10.373 6.09801C9.24389 5.46569 8.34058 5.9851 8.34058 7.27232V7.38524C8.34058 6.09801 9.26648 5.5786 10.373 6.21093Z" fill="white"/>
<path d="M37.8564 10.3657C37.5854 10.5012 37.3144 10.5915 36.9983 10.6593C36.6821 10.727 36.3208 10.7722 35.9143 10.7722C35.5078 10.7722 35.1239 10.7044 34.7851 10.569C34.4464 10.4335 34.1528 10.2528 33.9044 10.0044C33.656 9.75596 33.4753 9.48497 33.3398 9.14623C33.2043 8.80748 33.1366 8.44616 33.1366 8.06225C33.1366 7.65575 33.2043 7.27184 33.3398 6.95568C33.4753 6.61694 33.6786 6.34594 33.927 6.12011C34.1754 5.89429 34.469 5.71362 34.8077 5.57812C35.1465 5.44263 35.5078 5.39746 35.9143 5.39746C36.3208 5.39746 36.7047 5.46521 37.0434 5.57812C37.3822 5.69104 37.6532 5.84912 37.8564 6.05237L37.2241 6.72985C37.0886 6.59436 36.9079 6.45886 36.6821 6.36853C36.4563 6.2782 36.1853 6.21045 35.9143 6.21045C35.6433 6.21045 35.3949 6.25561 35.1916 6.34594C34.9658 6.43628 34.7851 6.57177 34.6271 6.75244C34.469 6.91052 34.3561 7.11376 34.2657 7.33959C34.1754 7.56542 34.1302 7.81383 34.1302 8.08483C34.1302 8.35582 34.1754 8.60424 34.2657 8.83007C34.3561 9.05589 34.469 9.25914 34.6271 9.41722C34.7851 9.5753 34.9658 9.7108 35.1916 9.80113C35.4175 9.89146 35.6659 9.93663 35.9595 9.93663C36.3434 9.93663 36.6821 9.86888 36.9757 9.75597V8.46874H35.8917V7.7235H37.8564V10.3657Z" fill="white"/>
<path d="M38.8953 5.5332H42.2827V6.32361H39.7986V7.63341H42.1472V8.40123H39.7986V9.82396H42.4182V10.6369H38.8953V5.5332Z" fill="white"/>
<path d="M44.27 6.32361H42.7118V5.5332H46.7541V6.32361H45.1959V10.6369H44.2926V6.32361H44.27Z" fill="white"/>
<path d="M48.8318 5.5332H49.7351V10.6595H48.8318V5.5332Z" fill="white"/>
<path d="M51.8126 6.32361H50.2544V5.5332H54.2967V6.32361H52.7385V10.6369H51.8352V6.32361H51.8126Z" fill="white"/>
<path d="M56.126 8.06225C56.126 7.65575 56.1937 7.27184 56.3292 6.95568C56.4647 6.61694 56.668 6.34594 56.8938 6.12011C57.1196 5.89429 57.4358 5.71362 57.7519 5.57812C58.0907 5.44263 58.452 5.39746 58.8359 5.39746C59.2424 5.39746 59.6037 5.46521 59.9425 5.57812C60.2812 5.69104 60.5748 5.8717 60.8232 6.12011C61.0716 6.36853 61.2523 6.63952 61.3878 6.95568C61.5233 7.29443 61.591 7.65575 61.591 8.06225C61.591 8.46874 61.5233 8.83007 61.3878 9.14623C61.2523 9.48497 61.0491 9.75596 60.8232 10.0044C60.5748 10.2528 60.2812 10.4335 59.9425 10.569C59.6037 10.7044 59.2424 10.7722 58.8359 10.7722C58.4294 10.7722 58.0681 10.7044 57.7519 10.569C57.4132 10.4335 57.1196 10.2528 56.8938 10.0044C56.6454 9.75596 56.4647 9.48497 56.3292 9.14623C56.1937 8.83007 56.126 8.46874 56.126 8.06225ZM57.1196 8.06225C57.1196 8.33324 57.1648 8.58165 57.2551 8.80748C57.3455 9.03331 57.4584 9.23656 57.6165 9.39464C57.7745 9.55272 57.9552 9.68822 58.181 9.77855C58.4069 9.86888 58.6327 9.91405 58.9037 9.91405C59.1747 9.91405 59.4005 9.86888 59.6263 9.77855C59.8522 9.68822 60.0328 9.55272 60.1909 9.39464C60.349 9.23656 60.4619 9.03331 60.5522 8.80748C60.6426 8.58165 60.6877 8.33324 60.6877 8.06225C60.6877 7.79125 60.6426 7.54284 60.5522 7.31701C60.4619 7.09118 60.349 6.88793 60.1909 6.72985C60.0328 6.57177 59.8522 6.43628 59.6263 6.32336C59.4005 6.21045 59.1747 6.18786 58.9037 6.18786C58.6327 6.18786 58.4069 6.23303 58.181 6.32336C57.9552 6.41369 57.7745 6.54919 57.639 6.72985C57.481 6.88793 57.368 7.09118 57.2777 7.31701C57.1648 7.56542 57.1196 7.81383 57.1196 8.06225Z" fill="white"/>
<path d="M62.4492 5.5332H63.6461L66.0173 9.3723H66.0399V5.5332H66.9432V10.6595H65.7915L63.3751 6.68493H63.3525V10.6369H62.4492V5.5332Z" fill="white"/>
<defs>
<linearGradient id="paint0_linear_3053_8998" x1="17.8125" y1="7.08246" x2="4.38366" y2="20.5113" gradientUnits="userSpaceOnUse">
<stop stop-color="#4998D3"/>
<stop offset="0.00657445" stop-color="#4A99D3"/>
<stop offset="0.2601" stop-color="#42BAEB"/>
<stop offset="0.5122" stop-color="#41C7F2"/>
<stop offset="0.7604" stop-color="#56C9E9"/>
<stop offset="1" stop-color="#5BCAE8"/>
</linearGradient>
<linearGradient id="paint1_linear_3053_8998" x1="27.4423" y1="16.1181" x2="8.08066" y2="16.1181" gradientUnits="userSpaceOnUse">
<stop stop-color="#FEE000"/>
<stop offset="0.4087" stop-color="#FEBD11"/>
<stop offset="0.7754" stop-color="#FAA51A"/>
<stop offset="1" stop-color="#F99B1C"/>
</linearGradient>
<linearGradient id="paint2_linear_3053_8998" x1="20.2349" y1="17.9545" x2="2.02427" y2="36.1651" gradientUnits="userSpaceOnUse">
<stop stop-color="#EF4149"/>
<stop offset="1" stop-color="#C31E63"/>
</linearGradient>
<linearGradient id="paint3_linear_3053_8998" x1="6.2081" y1="0.254953" x2="14.3399" y2="8.38672" gradientUnits="userSpaceOnUse">
<stop stop-color="#32A072"/>
<stop offset="0.0685" stop-color="#2CA772"/>
<stop offset="0.4762" stop-color="#4BBA71"/>
<stop offset="0.8009" stop-color="#5EBD6B"/>
<stop offset="1" stop-color="#66BE69"/>
</linearGradient>
</defs>
</svg>
